<?xml version="1.0" encoding="UTF-8" standalone="no"?>
<!DOCTYPE svg PUBLIC "-//W3C//DTD SVG 1.1//EN"
 "http://www.w3.org/Graphics/SVG/1.1/DTD/svg11.dtd">
<!-- Generated by graphviz version 2.40.1 (20161225.0304)
 -->
<!-- Title: dependencies Pages: 1 -->
<svg width="1394pt" height="211pt"
 viewBox="0.00 0.00 1394.00 211.00" xmlns="http://www.w3.org/2000/svg" xmlns:xlink="http://www.w3.org/1999/xlink">
<g id="graph0" class="graph" transform="scale(1 1) rotate(0) translate(4 207)">
<title>dependencies</title>
<polygon fill="#ffffff" stroke="transparent" points="-4,4 -4,-207 1390,-207 1390,4 -4,4"/>
<text text-anchor="start" x="672.0091" y="-42.4" font-family="sans-serif" font-weight="bold" font-size="14.00" fill="#000000">Legend</text>
<polygon fill="#ffffb3" stroke="transparent" points="459,-10 459,-30 479,-30 479,-10 459,-10"/>
<text text-anchor="start" x="482.629" y="-15.4" font-family="sans-serif" font-size="14.00" fill="#000000"> &#160;Declarations</text>
<polygon fill="#8dd3c7" stroke="transparent" points="572,-10 572,-30 592,-30 592,-10 572,-10"/>
<text text-anchor="start" x="595.7251" y="-15.4" font-family="sans-serif" font-size="14.00" fill="#000000"> &#160;Module</text>
<polygon fill="#80b1d3" stroke="transparent" points="658,-10 658,-30 678,-30 678,-10 658,-10"/>
<text text-anchor="start" x="681.7812" y="-15.4" font-family="sans-serif" font-size="14.00" fill="#000000"> &#160;Bootstrap</text>
<polygon fill="#fdb462" stroke="transparent" points="755,-10 755,-30 775,-30 775,-10 755,-10"/>
<text text-anchor="start" x="778.6732" y="-15.4" font-family="sans-serif" font-size="14.00" fill="#000000"> &#160;Providers</text>
<polygon fill="#fb8072" stroke="transparent" points="851,-10 851,-30 871,-30 871,-10 851,-10"/>
<text text-anchor="start" x="874.7258" y="-15.4" font-family="sans-serif" font-size="14.00" fill="#000000"> &#160;Exports</text>
<g id="clust1" class="cluster">
<title>cluster_CoreModule</title>
<polygon fill="none" stroke="#000000" stroke-dasharray="1,5" points="8,-70 8,-195 1378,-195 1378,-70 8,-70"/>
</g>
<g id="clust6" class="cluster">
<title>cluster_CoreModule_providers</title>
<polygon fill="none" stroke="#000000" points="16,-78 16,-130 1370,-130 1370,-78 16,-78"/>
</g>
<!-- AddressService -->
<g id="node1" class="node">
<title>AddressService</title>
<ellipse fill="#fdb462" stroke="#000000" cx="1290" cy="-104" rx="71.766" ry="18"/>
<text text-anchor="middle" x="1290" y="-99.8" font-family="Times,serif" font-size="14.00" fill="#000000">AddressService</text>
</g>
<!-- CoreModule -->
<g id="node9" class="node">
<title>CoreModule</title>
<polygon fill="#8dd3c7" stroke="#000000" points="654.2619,-187 651.2619,-191 630.2619,-191 627.2619,-187 567.7381,-187 567.7381,-151 654.2619,-151 654.2619,-187"/>
<text text-anchor="middle" x="611" y="-164.8" font-family="Times,serif" font-size="14.00" fill="#000000">CoreModule</text>
</g>
<!-- AddressService&#45;&gt;CoreModule -->
<g id="edge1" class="edge">
<title>AddressService&#45;&gt;CoreModule</title>
<path fill="none" stroke="#000000" d="M1290,-122.2921C1290,-144.2057 1290,-178 1290,-178 1290,-178 664.5074,-178 664.5074,-178"/>
<polygon fill="#000000" stroke="#000000" points="664.5075,-174.5001 654.5074,-178 664.5074,-181.5001 664.5075,-174.5001"/>
</g>
<!-- ConfigurationService -->
<g id="node2" class="node">
<title>ConfigurationService</title>
<ellipse fill="#fdb462" stroke="#000000" cx="1106" cy="-104" rx="94.3408" ry="18"/>
<text text-anchor="middle" x="1106" y="-99.8" font-family="Times,serif" font-size="14.00" fill="#000000">ConfigurationService</text>
</g>
<!-- ConfigurationService&#45;&gt;CoreModule -->
<g id="edge2" class="edge">
<title>ConfigurationService&#45;&gt;CoreModule</title>
<path fill="none" stroke="#000000" d="M1106,-122.1061C1106,-141.3391 1106,-169 1106,-169 1106,-169 664.4941,-169 664.4941,-169"/>
<polygon fill="#000000" stroke="#000000" points="664.4941,-165.5001 654.4941,-169 664.4941,-172.5001 664.4941,-165.5001"/>
</g>
<!-- HttpErrorHandlerService -->
<g id="node3" class="node">
<title>HttpErrorHandlerService</title>
<ellipse fill="#fdb462" stroke="#000000" cx="885" cy="-104" rx="108.7632" ry="18"/>
<text text-anchor="middle" x="885" y="-99.8" font-family="Times,serif" font-size="14.00" fill="#000000">HttpErrorHandlerService</text>
</g>
<!-- HttpErrorHandlerService&#45;&gt;CoreModule -->
<g id="edge3" class="edge">
<title>HttpErrorHandlerService&#45;&gt;CoreModule</title>
<path fill="none" stroke="#000000" d="M885,-122.027C885,-138.3976 885,-160 885,-160 885,-160 664.4161,-160 664.4161,-160"/>
<polygon fill="#000000" stroke="#000000" points="664.4161,-156.5001 654.4161,-160 664.4161,-163.5001 664.4161,-156.5001"/>
</g>
<!-- LoaderService -->
<g id="node4" class="node">
<title>LoaderService</title>
<ellipse fill="#fdb462" stroke="#000000" cx="691" cy="-104" rx="67.1734" ry="18"/>
<text text-anchor="middle" x="691" y="-99.8" font-family="Times,serif" font-size="14.00" fill="#000000">LoaderService</text>
</g>
<!-- LoaderService&#45;&gt;CoreModule -->
<g id="edge4" class="edge">
<title>LoaderService&#45;&gt;CoreModule</title>
<path fill="none" stroke="#000000" d="M639.0222,-115.6207C639.0222,-115.6207 639.0222,-140.8534 639.0222,-140.8534"/>
<polygon fill="#000000" stroke="#000000" points="635.5223,-140.8533 639.0222,-150.8534 642.5223,-140.8534 635.5223,-140.8533"/>
</g>
<!-- MessageService -->
<g id="node5" class="node">
<title>MessageService</title>
<ellipse fill="#fdb462" stroke="#000000" cx="532" cy="-104" rx="73.5522" ry="18"/>
<text text-anchor="middle" x="532" y="-99.8" font-family="Times,serif" font-size="14.00" fill="#000000">MessageService</text>
</g>
<!-- MessageService&#45;&gt;CoreModule -->
<g id="edge5" class="edge">
<title>MessageService&#45;&gt;CoreModule</title>
<path fill="none" stroke="#000000" d="M586.6975,-116.226C586.6975,-116.226 586.6975,-140.683 586.6975,-140.683"/>
<polygon fill="#000000" stroke="#000000" points="583.1976,-140.683 586.6975,-150.683 590.1976,-140.683 583.1976,-140.683"/>
</g>
<!-- Settings -->
<g id="node6" class="node">
<title>Settings</title>
<ellipse fill="#fdb462" stroke="#000000" cx="398" cy="-104" rx="42.3107" ry="18"/>
<text text-anchor="middle" x="398" y="-99.8" font-family="Times,serif" font-size="14.00" fill="#000000">Settings</text>
</g>
<!-- Settings&#45;&gt;CoreModule -->
<g id="edge6" class="edge">
<title>Settings&#45;&gt;CoreModule</title>
<path fill="none" stroke="#000000" d="M398,-122.027C398,-138.3976 398,-160 398,-160 398,-160 557.6395,-160 557.6395,-160"/>
<polygon fill="#000000" stroke="#000000" points="557.6396,-163.5001 567.6395,-160 557.6395,-156.5001 557.6396,-163.5001"/>
</g>
<!-- UserAddressService -->
<g id="node7" class="node">
<title>UserAddressService</title>
<ellipse fill="#fdb462" stroke="#000000" cx="248" cy="-104" rx="89.7229" ry="18"/>
<text text-anchor="middle" x="248" y="-99.8" font-family="Times,serif" font-size="14.00" fill="#000000">UserAddressService</text>
</g>
<!-- UserAddressService&#45;&gt;CoreModule -->
<g id="edge7" class="edge">
<title>UserAddressService&#45;&gt;CoreModule</title>
<path fill="none" stroke="#000000" d="M248,-122.1061C248,-141.3391 248,-169 248,-169 248,-169 557.5743,-169 557.5743,-169"/>
<polygon fill="#000000" stroke="#000000" points="557.5743,-172.5001 567.5743,-169 557.5742,-165.5001 557.5743,-172.5001"/>
</g>
<!-- UserService -->
<g id="node8" class="node">
<title>UserService</title>
<ellipse fill="#fdb462" stroke="#000000" cx="82" cy="-104" rx="58.4415" ry="18"/>
<text text-anchor="middle" x="82" y="-99.8" font-family="Times,serif" font-size="14.00" fill="#000000">UserService</text>
</g>
<!-- UserService&#45;&gt;CoreModule -->
<g id="edge8" class="edge">
<title>UserService&#45;&gt;CoreModule</title>
<path fill="none" stroke="#000000" d="M82,-122.2921C82,-144.2057 82,-178 82,-178 82,-178 557.7097,-178 557.7097,-178"/>
<polygon fill="#000000" stroke="#000000" points="557.7097,-181.5001 567.7097,-178 557.7097,-174.5001 557.7097,-181.5001"/>
</g>
</g>
</svg>
