<?xml version="1.0" encoding="UTF-8" standalone="no"?>
<!DOCTYPE svg PUBLIC "-//W3C//DTD SVG 1.1//EN"
 "http://www.w3.org/Graphics/SVG/1.1/DTD/svg11.dtd">
<!-- Generated by graphviz version 2.40.1 (20161225.0304)
 -->
<!-- Title: dependencies Pages: 1 -->
<svg width="504pt" height="284pt"
 viewBox="0.00 0.00 504.00 284.00" xmlns="http://www.w3.org/2000/svg" xmlns:xlink="http://www.w3.org/1999/xlink">
<g id="graph0" class="graph" transform="scale(1 1) rotate(0) translate(4 280)">
<title>dependencies</title>
<polygon fill="#ffffff" stroke="transparent" points="-4,4 -4,-280 500,-280 500,4 -4,4"/>
<text text-anchor="start" x="227.0091" y="-42.4" font-family="sans-serif" font-weight="bold" font-size="14.00" fill="#000000">Legend</text>
<polygon fill="#ffffb3" stroke="transparent" points="14,-10 14,-30 34,-30 34,-10 14,-10"/>
<text text-anchor="start" x="37.629" y="-15.4" font-family="sans-serif" font-size="14.00" fill="#000000"> &#160;Declarations</text>
<polygon fill="#8dd3c7" stroke="transparent" points="127,-10 127,-30 147,-30 147,-10 127,-10"/>
<text text-anchor="start" x="150.7251" y="-15.4" font-family="sans-serif" font-size="14.00" fill="#000000"> &#160;Module</text>
<polygon fill="#80b1d3" stroke="transparent" points="213,-10 213,-30 233,-30 233,-10 213,-10"/>
<text text-anchor="start" x="236.7812" y="-15.4" font-family="sans-serif" font-size="14.00" fill="#000000"> &#160;Bootstrap</text>
<polygon fill="#fdb462" stroke="transparent" points="310,-10 310,-30 330,-30 330,-10 310,-10"/>
<text text-anchor="start" x="333.6732" y="-15.4" font-family="sans-serif" font-size="14.00" fill="#000000"> &#160;Providers</text>
<polygon fill="#fb8072" stroke="transparent" points="406,-10 406,-30 426,-30 426,-10 406,-10"/>
<text text-anchor="start" x="429.7258" y="-15.4" font-family="sans-serif" font-size="14.00" fill="#000000"> &#160;Exports</text>
<g id="clust1" class="cluster">
<title>cluster_ImageSliderModule</title>
<polygon fill="none" stroke="#000000" stroke-dasharray="1,5" points="61.5,-70 61.5,-268 434.5,-268 434.5,-70 61.5,-70"/>
</g>
<g id="clust2" class="cluster">
<title>cluster_ImageSliderModule_declarations</title>
<polygon fill="none" stroke="#000000" points="73.5,-78 73.5,-130 423.5,-130 423.5,-78 73.5,-78"/>
</g>
<g id="clust6" class="cluster">
<title>cluster_ImageSliderModule_exports</title>
<polygon fill="none" stroke="#000000" points="69.5,-208 69.5,-260 426.5,-260 426.5,-208 69.5,-208"/>
</g>
<!-- BgImageSliderComponent -->
<g id="node1" class="node">
<title>BgImageSliderComponent</title>
<polygon fill="#ffffb3" stroke="#000000" points="415.5884,-122 249.4116,-122 249.4116,-86 415.5884,-86 415.5884,-122"/>
<text text-anchor="middle" x="332.5" y="-99.8" font-family="Times,serif" font-size="14.00" fill="#000000">BgImageSliderComponent</text>
</g>
<!-- ImageSliderModule -->
<g id="node3" class="node">
<title>ImageSliderModule</title>
<polygon fill="#8dd3c7" stroke="#000000" points="221.4692,-187 218.4692,-191 197.4692,-191 194.4692,-187 93.5308,-187 93.5308,-151 221.4692,-151 221.4692,-187"/>
<text text-anchor="middle" x="157.5" y="-164.8" font-family="Times,serif" font-size="14.00" fill="#000000">ImageSliderModule</text>
</g>
<!-- BgImageSliderComponent&#45;&gt;ImageSliderModule -->
<g id="edge1" class="edge">
<title>BgImageSliderComponent&#45;&gt;ImageSliderModule</title>
<path fill="none" stroke="#000000" d="M360.1814,-122.0225C360.1814,-139.3734 360.1814,-163 360.1814,-163 360.1814,-163 231.6297,-163 231.6297,-163"/>
<polygon fill="#000000" stroke="#000000" points="231.6297,-159.5001 221.6297,-163 231.6296,-166.5001 231.6297,-159.5001"/>
</g>
<!-- ImageSliderComponent -->
<g id="node2" class="node">
<title>ImageSliderComponent</title>
<polygon fill="#ffffb3" stroke="#000000" points="231.252,-122 81.748,-122 81.748,-86 231.252,-86 231.252,-122"/>
<text text-anchor="middle" x="156.5" y="-99.8" font-family="Times,serif" font-size="14.00" fill="#000000">ImageSliderComponent</text>
</g>
<!-- ImageSliderComponent&#45;&gt;ImageSliderModule -->
<g id="edge2" class="edge">
<title>ImageSliderComponent&#45;&gt;ImageSliderModule</title>
<path fill="none" stroke="#000000" d="M157.5,-122.1061C157.5,-122.1061 157.5,-140.991 157.5,-140.991"/>
<polygon fill="#000000" stroke="#000000" points="154.0001,-140.9909 157.5,-150.991 161.0001,-140.991 154.0001,-140.9909"/>
</g>
<!-- BgImageSliderComponent  -->
<g id="node4" class="node">
<title>BgImageSliderComponent </title>
<polygon fill="#fb8072" stroke="#000000" points="418.0889,-252 248.9111,-252 248.9111,-216 418.0889,-216 418.0889,-252"/>
<text text-anchor="middle" x="333.5" y="-229.8" font-family="Times,serif" font-size="14.00" fill="#000000">BgImageSliderComponent </text>
</g>
<!-- ImageSliderModule&#45;&gt;BgImageSliderComponent  -->
<g id="edge3" class="edge">
<title>ImageSliderModule&#45;&gt;BgImageSliderComponent </title>
<path fill="none" stroke="#000000" stroke-dasharray="5,2" d="M221.6875,-175C261.3869,-175 304.8186,-175 304.8186,-175 304.8186,-175 304.8186,-205.9775 304.8186,-205.9775"/>
<polygon fill="#000000" stroke="#000000" points="301.3187,-205.9774 304.8186,-215.9775 308.3187,-205.9775 301.3187,-205.9774"/>
</g>
<!-- ImageSliderComponent  -->
<g id="node5" class="node">
<title>ImageSliderComponent </title>
<polygon fill="#fb8072" stroke="#000000" points="231.252,-252 77.748,-252 77.748,-216 231.252,-216 231.252,-252"/>
<text text-anchor="middle" x="154.5" y="-229.8" font-family="Times,serif" font-size="14.00" fill="#000000">ImageSliderComponent </text>
</g>
<!-- ImageSliderModule&#45;&gt;ImageSliderComponent  -->
<g id="edge4" class="edge">
<title>ImageSliderModule&#45;&gt;ImageSliderComponent </title>
<path fill="none" stroke="#000000" stroke-dasharray="5,2" d="M157.5,-187.1061C157.5,-187.1061 157.5,-205.991 157.5,-205.991"/>
<polygon fill="#000000" stroke="#000000" points="154.0001,-205.9909 157.5,-215.991 161.0001,-205.991 154.0001,-205.9909"/>
</g>
</g>
</svg>
