<?xml version="1.0" encoding="UTF-8" standalone="no"?>
<!DOCTYPE svg PUBLIC "-//W3C//DTD SVG 1.1//EN"
 "http://www.w3.org/Graphics/SVG/1.1/DTD/svg11.dtd">
<!-- Generated by graphviz version 2.40.1 (20161225.0304)
 -->
<!-- Title: dependencies Pages: 1 -->
<svg width="1040pt" height="284pt"
 viewBox="0.00 0.00 1040.00 284.00" xmlns="http://www.w3.org/2000/svg" xmlns:xlink="http://www.w3.org/1999/xlink">
<g id="graph0" class="graph" transform="scale(1 1) rotate(0) translate(4 280)">
<title>dependencies</title>
<polygon fill="#ffffff" stroke="transparent" points="-4,4 -4,-280 1036,-280 1036,4 -4,4"/>
<text text-anchor="start" x="495.0091" y="-42.4" font-family="sans-serif" font-weight="bold" font-size="14.00" fill="#000000">Legend</text>
<polygon fill="#ffffb3" stroke="transparent" points="282,-10 282,-30 302,-30 302,-10 282,-10"/>
<text text-anchor="start" x="305.629" y="-15.4" font-family="sans-serif" font-size="14.00" fill="#000000"> &#160;Declarations</text>
<polygon fill="#8dd3c7" stroke="transparent" points="395,-10 395,-30 415,-30 415,-10 395,-10"/>
<text text-anchor="start" x="418.7251" y="-15.4" font-family="sans-serif" font-size="14.00" fill="#000000"> &#160;Module</text>
<polygon fill="#80b1d3" stroke="transparent" points="481,-10 481,-30 501,-30 501,-10 481,-10"/>
<text text-anchor="start" x="504.7812" y="-15.4" font-family="sans-serif" font-size="14.00" fill="#000000"> &#160;Bootstrap</text>
<polygon fill="#fdb462" stroke="transparent" points="578,-10 578,-30 598,-30 598,-10 578,-10"/>
<text text-anchor="start" x="601.6732" y="-15.4" font-family="sans-serif" font-size="14.00" fill="#000000"> &#160;Providers</text>
<polygon fill="#fb8072" stroke="transparent" points="674,-10 674,-30 694,-30 694,-10 674,-10"/>
<text text-anchor="start" x="697.7258" y="-15.4" font-family="sans-serif" font-size="14.00" fill="#000000"> &#160;Exports</text>
<g id="clust1" class="cluster">
<title>cluster_SharedModule</title>
<polygon fill="none" stroke="#000000" stroke-dasharray="1,5" points="8,-70 8,-268 1024,-268 1024,-70 8,-70"/>
</g>
<g id="clust2" class="cluster">
<title>cluster_SharedModule_declarations</title>
<polygon fill="none" stroke="#000000" points="719,-78 719,-130 998,-130 998,-78 719,-78"/>
</g>
<g id="clust5" class="cluster">
<title>cluster_SharedModule_imports</title>
<polygon fill="none" stroke="#000000" points="16,-78 16,-130 711,-130 711,-78 16,-78"/>
</g>
<g id="clust6" class="cluster">
<title>cluster_SharedModule_exports</title>
<polygon fill="none" stroke="#000000" points="16,-208 16,-260 1016,-260 1016,-208 16,-208"/>
</g>
<!-- LoaderComponent -->
<g id="node1" class="node">
<title>LoaderComponent</title>
<polygon fill="#ffffb3" stroke="#000000" points="990.4748,-122 869.5252,-122 869.5252,-86 990.4748,-86 990.4748,-122"/>
<text text-anchor="middle" x="930" y="-99.8" font-family="Times,serif" font-size="14.00" fill="#000000">LoaderComponent</text>
</g>
<!-- SharedModule -->
<g id="node3" class="node">
<title>SharedModule</title>
<polygon fill="#8dd3c7" stroke="#000000" points="557.4231,-187 554.4231,-191 533.4231,-191 530.4231,-187 458.5769,-187 458.5769,-151 557.4231,-151 557.4231,-187"/>
<text text-anchor="middle" x="508" y="-164.8" font-family="Times,serif" font-size="14.00" fill="#000000">SharedModule</text>
</g>
<!-- LoaderComponent&#45;&gt;SharedModule -->
<g id="edge1" class="edge">
<title>LoaderComponent&#45;&gt;SharedModule</title>
<path fill="none" stroke="#000000" d="M875.658,-122.2222C875.658,-140.8285 875.658,-167 875.658,-167 875.658,-167 567.584,-167 567.584,-167"/>
<polygon fill="#000000" stroke="#000000" points="567.584,-163.5001 557.584,-167 567.584,-170.5001 567.584,-163.5001"/>
</g>
<!-- SpinnerComponent -->
<g id="node2" class="node">
<title>SpinnerComponent</title>
<polygon fill="#ffffb3" stroke="#000000" points="851.3809,-122 726.6191,-122 726.6191,-86 851.3809,-86 851.3809,-122"/>
<text text-anchor="middle" x="789" y="-99.8" font-family="Times,serif" font-size="14.00" fill="#000000">SpinnerComponent</text>
</g>
<!-- SpinnerComponent&#45;&gt;SharedModule -->
<g id="edge2" class="edge">
<title>SpinnerComponent&#45;&gt;SharedModule</title>
<path fill="none" stroke="#000000" d="M731.4003,-122.0336C731.4003,-139.0597 731.4003,-162 731.4003,-162 731.4003,-162 567.3027,-162 567.3027,-162"/>
<polygon fill="#000000" stroke="#000000" points="567.3027,-158.5001 557.3027,-162 567.3027,-165.5001 567.3027,-158.5001"/>
</g>
<!-- AddressModule  -->
<g id="node9" class="node">
<title>AddressModule </title>
<polygon fill="#fb8072" stroke="#000000" points="1008.4208,-252 899.5792,-252 899.5792,-216 1008.4208,-216 1008.4208,-252"/>
<text text-anchor="middle" x="954" y="-229.8" font-family="Times,serif" font-size="14.00" fill="#000000">AddressModule </text>
</g>
<!-- SharedModule&#45;&gt;AddressModule  -->
<g id="edge8" class="edge">
<title>SharedModule&#45;&gt;AddressModule </title>
<path fill="none" stroke="#000000" stroke-dasharray="5,2" d="M557.2815,-172C671.5717,-172 945.0135,-172 945.0135,-172 945.0135,-172 945.0135,-205.7333 945.0135,-205.7333"/>
<polygon fill="#000000" stroke="#000000" points="941.5136,-205.7333 945.0135,-215.7333 948.5136,-205.7333 941.5136,-205.7333"/>
</g>
<!-- FormFieldsModule  -->
<g id="node10" class="node">
<title>FormFieldsModule </title>
<polygon fill="#fb8072" stroke="#000000" points="881.6072,-252 754.3928,-252 754.3928,-216 881.6072,-216 881.6072,-252"/>
<text text-anchor="middle" x="818" y="-229.8" font-family="Times,serif" font-size="14.00" fill="#000000">FormFieldsModule </text>
</g>
<!-- SharedModule&#45;&gt;FormFieldsModule  -->
<g id="edge9" class="edge">
<title>SharedModule&#45;&gt;FormFieldsModule </title>
<path fill="none" stroke="#000000" stroke-dasharray="5,2" d="M557.346,-177C641.2736,-177 802.8186,-177 802.8186,-177 802.8186,-177 802.8186,-205.9648 802.8186,-205.9648"/>
<polygon fill="#000000" stroke="#000000" points="799.3186,-205.9648 802.8186,-215.9648 806.3186,-205.9649 799.3186,-205.9648"/>
</g>
<!-- FormValidationModule  -->
<g id="node11" class="node">
<title>FormValidationModule </title>
<polygon fill="#fb8072" stroke="#000000" points="736.4826,-252 583.5174,-252 583.5174,-216 736.4826,-216 736.4826,-252"/>
<text text-anchor="middle" x="660" y="-229.8" font-family="Times,serif" font-size="14.00" fill="#000000">FormValidationModule </text>
</g>
<!-- SharedModule&#45;&gt;FormValidationModule  -->
<g id="edge10" class="edge">
<title>SharedModule&#45;&gt;FormValidationModule </title>
<path fill="none" stroke="#000000" stroke-dasharray="5,2" d="M557.434,-182C575.0095,-182 590.5243,-182 590.5243,-182 590.5243,-182 590.5243,-205.8129 590.5243,-205.8129"/>
<polygon fill="#000000" stroke="#000000" points="587.0244,-205.8129 590.5243,-215.8129 594.0244,-205.813 587.0244,-205.8129"/>
</g>
<!-- ImageSliderModule  -->
<g id="node12" class="node">
<title>ImageSliderModule </title>
<polygon fill="#fb8072" stroke="#000000" points="565.97,-252 434.03,-252 434.03,-216 565.97,-216 565.97,-252"/>
<text text-anchor="middle" x="500" y="-229.8" font-family="Times,serif" font-size="14.00" fill="#000000">ImageSliderModule </text>
</g>
<!-- SharedModule&#45;&gt;ImageSliderModule  -->
<g id="edge11" class="edge">
<title>SharedModule&#45;&gt;ImageSliderModule </title>
<path fill="none" stroke="#000000" stroke-dasharray="5,2" d="M508,-187.1061C508,-187.1061 508,-205.991 508,-205.991"/>
<polygon fill="#000000" stroke="#000000" points="504.5001,-205.9909 508,-215.991 511.5001,-205.991 504.5001,-205.9909"/>
</g>
<!-- LoaderComponent  -->
<g id="node13" class="node">
<title>LoaderComponent </title>
<polygon fill="#fb8072" stroke="#000000" points="416.4757,-252 291.5243,-252 291.5243,-216 416.4757,-216 416.4757,-252"/>
<text text-anchor="middle" x="354" y="-229.8" font-family="Times,serif" font-size="14.00" fill="#000000">LoaderComponent </text>
</g>
<!-- SharedModule&#45;&gt;LoaderComponent  -->
<g id="edge12" class="edge">
<title>SharedModule&#45;&gt;LoaderComponent </title>
<path fill="none" stroke="#000000" stroke-dasharray="5,2" d="M458.4257,-182C413.4066,-182 354,-182 354,-182 354,-182 354,-205.8129 354,-205.8129"/>
<polygon fill="#000000" stroke="#000000" points="350.5001,-205.8129 354,-215.8129 357.5001,-205.813 350.5001,-205.8129"/>
</g>
<!-- SpinnerComponent  -->
<g id="node14" class="node">
<title>SpinnerComponent </title>
<polygon fill="#fb8072" stroke="#000000" points="274.3814,-252 145.6186,-252 145.6186,-216 274.3814,-216 274.3814,-252"/>
<text text-anchor="middle" x="210" y="-229.8" font-family="Times,serif" font-size="14.00" fill="#000000">SpinnerComponent </text>
</g>
<!-- SharedModule&#45;&gt;SpinnerComponent  -->
<g id="edge13" class="edge">
<title>SharedModule&#45;&gt;SpinnerComponent </title>
<path fill="none" stroke="#000000" stroke-dasharray="5,2" d="M458.6908,-177C378.4786,-177 228.5929,-177 228.5929,-177 228.5929,-177 228.5929,-205.9648 228.5929,-205.9648"/>
<polygon fill="#000000" stroke="#000000" points="225.093,-205.9648 228.5929,-215.9648 232.093,-205.9649 225.093,-205.9648"/>
</g>
<!-- swMapModule  -->
<g id="node15" class="node">
<title>swMapModule </title>
<polygon fill="#fb8072" stroke="#000000" points="128.2605,-252 23.7395,-252 23.7395,-216 128.2605,-216 128.2605,-252"/>
<text text-anchor="middle" x="76" y="-229.8" font-family="Times,serif" font-size="14.00" fill="#000000">swMapModule </text>
</g>
<!-- SharedModule&#45;&gt;swMapModule  -->
<g id="edge14" class="edge">
<title>SharedModule&#45;&gt;swMapModule </title>
<path fill="none" stroke="#000000" stroke-dasharray="5,2" d="M458.5125,-172C348.0208,-172 90.8767,-172 90.8767,-172 90.8767,-172 90.8767,-205.7333 90.8767,-205.7333"/>
<polygon fill="#000000" stroke="#000000" points="87.3768,-205.7333 90.8767,-215.7333 94.3768,-205.7333 87.3768,-205.7333"/>
</g>
<!-- AddressModule -->
<g id="node4" class="node">
<title>AddressModule</title>
<polygon fill="#8dd3c7" stroke="#000000" points="702.9216,-122 699.9216,-126 678.9216,-126 675.9216,-122 597.0784,-122 597.0784,-86 702.9216,-86 702.9216,-122"/>
<text text-anchor="middle" x="650" y="-99.8" font-family="Times,serif" font-size="14.00" fill="#000000">AddressModule</text>
</g>
<!-- AddressModule&#45;&gt;SharedModule -->
<g id="edge3" class="edge">
<title>AddressModule&#45;&gt;SharedModule</title>
<path fill="none" stroke="#000000" d="M650,-122.2396C650,-137.5706 650,-157 650,-157 650,-157 567.2662,-157 567.2662,-157"/>
<polygon fill="#000000" stroke="#000000" points="567.2662,-153.5001 557.2662,-157 567.2662,-160.5001 567.2662,-153.5001"/>
</g>
<!-- FormFieldsModule -->
<g id="node5" class="node">
<title>FormFieldsModule</title>
<polygon fill="#8dd3c7" stroke="#000000" points="579.1066,-122 576.1066,-126 555.1066,-126 552.1066,-122 454.8934,-122 454.8934,-86 579.1066,-86 579.1066,-122"/>
<text text-anchor="middle" x="517" y="-99.8" font-family="Times,serif" font-size="14.00" fill="#000000">FormFieldsModule</text>
</g>
<!-- FormFieldsModule&#45;&gt;SharedModule -->
<g id="edge4" class="edge">
<title>FormFieldsModule&#45;&gt;SharedModule</title>
<path fill="none" stroke="#000000" d="M508,-122.1061C508,-122.1061 508,-140.991 508,-140.991"/>
<polygon fill="#000000" stroke="#000000" points="504.5001,-140.9909 508,-150.991 511.5001,-140.991 504.5001,-140.9909"/>
</g>
<!-- FormValidationModule -->
<g id="node6" class="node">
<title>FormValidationModule</title>
<polygon fill="#8dd3c7" stroke="#000000" points="436.4818,-122 433.4818,-126 412.4818,-126 409.4818,-122 287.5182,-122 287.5182,-86 436.4818,-86 436.4818,-122"/>
<text text-anchor="middle" x="362" y="-99.8" font-family="Times,serif" font-size="14.00" fill="#000000">FormValidationModule</text>
</g>
<!-- FormValidationModule&#45;&gt;SharedModule -->
<g id="edge5" class="edge">
<title>FormValidationModule&#45;&gt;SharedModule</title>
<path fill="none" stroke="#000000" d="M425.2514,-122.2396C425.2514,-137.5706 425.2514,-157 425.2514,-157 425.2514,-157 448.4316,-157 448.4316,-157"/>
<polygon fill="#000000" stroke="#000000" points="448.4317,-160.5001 458.4316,-157 448.4316,-153.5001 448.4317,-160.5001"/>
</g>
<!-- ImageSliderModule -->
<g id="node7" class="node">
<title>ImageSliderModule</title>
<polygon fill="#8dd3c7" stroke="#000000" points="269.9692,-122 266.9692,-126 245.9692,-126 242.9692,-122 142.0308,-122 142.0308,-86 269.9692,-86 269.9692,-122"/>
<text text-anchor="middle" x="206" y="-99.8" font-family="Times,serif" font-size="14.00" fill="#000000">ImageSliderModule</text>
</g>
<!-- ImageSliderModule&#45;&gt;SharedModule -->
<g id="edge6" class="edge">
<title>ImageSliderModule&#45;&gt;SharedModule</title>
<path fill="none" stroke="#000000" d="M187.2013,-122.0336C187.2013,-139.0597 187.2013,-162 187.2013,-162 187.2013,-162 448.5782,-162 448.5782,-162"/>
<polygon fill="#000000" stroke="#000000" points="448.5783,-165.5001 458.5782,-162 448.5782,-158.5001 448.5783,-165.5001"/>
</g>
<!-- swMapModule -->
<g id="node8" class="node">
<title>swMapModule</title>
<polygon fill="#8dd3c7" stroke="#000000" points="124.2605,-122 121.2605,-126 100.2605,-126 97.2605,-122 23.7395,-122 23.7395,-86 124.2605,-86 124.2605,-122"/>
<text text-anchor="middle" x="74" y="-99.8" font-family="Times,serif" font-size="14.00" fill="#000000">swMapModule</text>
</g>
<!-- swMapModule&#45;&gt;SharedModule -->
<g id="edge7" class="edge">
<title>swMapModule&#45;&gt;SharedModule</title>
<path fill="none" stroke="#000000" d="M57.3733,-122.2222C57.3733,-140.8285 57.3733,-167 57.3733,-167 57.3733,-167 448.486,-167 448.486,-167"/>
<polygon fill="#000000" stroke="#000000" points="448.4861,-170.5001 458.486,-167 448.486,-163.5001 448.4861,-170.5001"/>
</g>
</g>
</svg>
