<?xml version="1.0" encoding="UTF-8" standalone="no"?>
<!DOCTYPE svg PUBLIC "-//W3C//DTD SVG 1.1//EN"
 "http://www.w3.org/Graphics/SVG/1.1/DTD/svg11.dtd">
<!-- Generated by graphviz version 2.40.1 (20161225.0304)
 -->
<!-- Title: dependencies Pages: 1 -->
<svg width="930pt" height="284pt"
 viewBox="0.00 0.00 930.00 284.00" xmlns="http://www.w3.org/2000/svg" xmlns:xlink="http://www.w3.org/1999/xlink">
<g id="graph0" class="graph" transform="scale(1 1) rotate(0) translate(4 280)">
<title>dependencies</title>
<polygon fill="#ffffff" stroke="transparent" points="-4,4 -4,-280 926,-280 926,4 -4,4"/>
<text text-anchor="start" x="440.0091" y="-42.4" font-family="sans-serif" font-weight="bold" font-size="14.00" fill="#000000">Legend</text>
<polygon fill="#ffffb3" stroke="transparent" points="227,-10 227,-30 247,-30 247,-10 227,-10"/>
<text text-anchor="start" x="250.629" y="-15.4" font-family="sans-serif" font-size="14.00" fill="#000000"> &#160;Declarations</text>
<polygon fill="#8dd3c7" stroke="transparent" points="340,-10 340,-30 360,-30 360,-10 340,-10"/>
<text text-anchor="start" x="363.7251" y="-15.4" font-family="sans-serif" font-size="14.00" fill="#000000"> &#160;Module</text>
<polygon fill="#80b1d3" stroke="transparent" points="426,-10 426,-30 446,-30 446,-10 426,-10"/>
<text text-anchor="start" x="449.7812" y="-15.4" font-family="sans-serif" font-size="14.00" fill="#000000"> &#160;Bootstrap</text>
<polygon fill="#fdb462" stroke="transparent" points="523,-10 523,-30 543,-30 543,-10 523,-10"/>
<text text-anchor="start" x="546.6732" y="-15.4" font-family="sans-serif" font-size="14.00" fill="#000000"> &#160;Providers</text>
<polygon fill="#fb8072" stroke="transparent" points="619,-10 619,-30 639,-30 639,-10 619,-10"/>
<text text-anchor="start" x="642.7258" y="-15.4" font-family="sans-serif" font-size="14.00" fill="#000000"> &#160;Exports</text>
<g id="clust1" class="cluster">
<title>cluster_FormFieldsModule</title>
<polygon fill="none" stroke="#000000" stroke-dasharray="1,5" points="8,-70 8,-268 914,-268 914,-70 8,-70"/>
</g>
<g id="clust2" class="cluster">
<title>cluster_FormFieldsModule_declarations</title>
<polygon fill="none" stroke="#000000" points="30,-78 30,-130 897,-130 897,-78 30,-78"/>
</g>
<g id="clust10" class="cluster">
<title>cluster_FormFieldsModule_exports</title>
<polygon fill="none" stroke="#000000" points="16,-208 16,-260 906,-260 906,-208 16,-208"/>
</g>
<!-- CountriesDirective -->
<g id="node1" class="node">
<title>CountriesDirective</title>
<polygon fill="#ffffb3" stroke="#000000" points="889.0213,-122 766.9787,-122 766.9787,-86 889.0213,-86 889.0213,-122"/>
<text text-anchor="middle" x="828" y="-99.8" font-family="Times,serif" font-size="14.00" fill="#000000">CountriesDirective</text>
</g>
<!-- FormFieldsModule -->
<g id="node7" class="node">
<title>FormFieldsModule</title>
<polygon fill="#8dd3c7" stroke="#000000" points="450.1066,-187 447.1066,-191 426.1066,-191 423.1066,-187 325.8934,-187 325.8934,-151 450.1066,-151 450.1066,-187"/>
<text text-anchor="middle" x="388" y="-164.8" font-family="Times,serif" font-size="14.00" fill="#000000">FormFieldsModule</text>
</g>
<!-- CountriesDirective&#45;&gt;FormFieldsModule -->
<g id="edge1" class="edge">
<title>CountriesDirective&#45;&gt;FormFieldsModule</title>
<path fill="none" stroke="#000000" d="M850.1701,-122.2222C850.1701,-140.8285 850.1701,-167 850.1701,-167 850.1701,-167 460.3303,-167 460.3303,-167"/>
<polygon fill="#000000" stroke="#000000" points="460.3303,-163.5001 450.3303,-167 460.3303,-170.5001 460.3303,-163.5001"/>
</g>
<!-- DateFormatPipe -->
<g id="node2" class="node">
<title>DateFormatPipe</title>
<polygon fill="#ffffb3" stroke="#000000" points="748.7535,-122 641.2465,-122 641.2465,-86 748.7535,-86 748.7535,-122"/>
<text text-anchor="middle" x="695" y="-99.8" font-family="Times,serif" font-size="14.00" fill="#000000">DateFormatPipe</text>
</g>
<!-- DateFormatPipe&#45;&gt;FormFieldsModule -->
<g id="edge2" class="edge">
<title>DateFormatPipe&#45;&gt;FormFieldsModule</title>
<path fill="none" stroke="#000000" d="M713.3755,-122.0336C713.3755,-139.0597 713.3755,-162 713.3755,-162 713.3755,-162 460.3507,-162 460.3507,-162"/>
<polygon fill="#000000" stroke="#000000" points="460.3507,-158.5001 450.3507,-162 460.3507,-165.5001 460.3507,-158.5001"/>
</g>
<!-- InputGroupComponent -->
<g id="node3" class="node">
<title>InputGroupComponent</title>
<polygon fill="#ffffb3" stroke="#000000" points="623.1512,-122 476.8488,-122 476.8488,-86 623.1512,-86 623.1512,-122"/>
<text text-anchor="middle" x="550" y="-99.8" font-family="Times,serif" font-size="14.00" fill="#000000">InputGroupComponent</text>
</g>
<!-- InputGroupComponent&#45;&gt;FormFieldsModule -->
<g id="edge3" class="edge">
<title>InputGroupComponent&#45;&gt;FormFieldsModule</title>
<path fill="none" stroke="#000000" d="M525.5582,-122.2396C525.5582,-137.5706 525.5582,-157 525.5582,-157 525.5582,-157 460.3395,-157 460.3395,-157"/>
<polygon fill="#000000" stroke="#000000" points="460.3395,-153.5001 450.3395,-157 460.3394,-160.5001 460.3395,-153.5001"/>
</g>
<!-- InputSimpleComponent -->
<g id="node4" class="node">
<title>InputSimpleComponent</title>
<polygon fill="#ffffb3" stroke="#000000" points="458.0533,-122 307.9467,-122 307.9467,-86 458.0533,-86 458.0533,-122"/>
<text text-anchor="middle" x="383" y="-99.8" font-family="Times,serif" font-size="14.00" fill="#000000">InputSimpleComponent</text>
</g>
<!-- InputSimpleComponent&#45;&gt;FormFieldsModule -->
<g id="edge4" class="edge">
<title>InputSimpleComponent&#45;&gt;FormFieldsModule</title>
<path fill="none" stroke="#000000" d="M388,-122.1061C388,-122.1061 388,-140.991 388,-140.991"/>
<polygon fill="#000000" stroke="#000000" points="384.5001,-140.9909 388,-150.991 391.5001,-140.991 384.5001,-140.9909"/>
</g>
<!-- LimitToPipe -->
<g id="node5" class="node">
<title>LimitToPipe</title>
<polygon fill="#ffffb3" stroke="#000000" points="289.5565,-122 202.4435,-122 202.4435,-86 289.5565,-86 289.5565,-122"/>
<text text-anchor="middle" x="246" y="-99.8" font-family="Times,serif" font-size="14.00" fill="#000000">LimitToPipe</text>
</g>
<!-- LimitToPipe&#45;&gt;FormFieldsModule -->
<g id="edge5" class="edge">
<title>LimitToPipe&#45;&gt;FormFieldsModule</title>
<path fill="none" stroke="#000000" d="M256.4259,-122.0091C256.4259,-138.0494 256.4259,-159 256.4259,-159 256.4259,-159 315.6808,-159 315.6808,-159"/>
<polygon fill="#000000" stroke="#000000" points="315.6808,-162.5001 325.6808,-159 315.6807,-155.5001 315.6808,-162.5001"/>
</g>
<!-- TimePickerComponent -->
<g id="node6" class="node">
<title>TimePickerComponent</title>
<polygon fill="#ffffb3" stroke="#000000" points="184.1442,-122 37.8558,-122 37.8558,-86 184.1442,-86 184.1442,-122"/>
<text text-anchor="middle" x="111" y="-99.8" font-family="Times,serif" font-size="14.00" fill="#000000">TimePickerComponent</text>
</g>
<!-- TimePickerComponent&#45;&gt;FormFieldsModule -->
<g id="edge6" class="edge">
<title>TimePickerComponent&#45;&gt;FormFieldsModule</title>
<path fill="none" stroke="#000000" d="M179.1969,-122.2667C179.1969,-140.5552 179.1969,-166 179.1969,-166 179.1969,-166 315.9175,-166 315.9175,-166"/>
<polygon fill="#000000" stroke="#000000" points="315.9176,-169.5001 325.9175,-166 315.9175,-162.5001 315.9176,-169.5001"/>
</g>
<!-- CountriesDirective  -->
<g id="node8" class="node">
<title>CountriesDirective </title>
<polygon fill="#fb8072" stroke="#000000" points="898.0204,-252 771.9796,-252 771.9796,-216 898.0204,-216 898.0204,-252"/>
<text text-anchor="middle" x="835" y="-229.8" font-family="Times,serif" font-size="14.00" fill="#000000">CountriesDirective </text>
</g>
<!-- FormFieldsModule&#45;&gt;CountriesDirective  -->
<g id="edge7" class="edge">
<title>FormFieldsModule&#45;&gt;CountriesDirective </title>
<path fill="none" stroke="#000000" stroke-dasharray="5,2" d="M450.4269,-172C568.1137,-172 811.0799,-172 811.0799,-172 811.0799,-172 811.0799,-205.7333 811.0799,-205.7333"/>
<polygon fill="#000000" stroke="#000000" points="807.58,-205.7333 811.0799,-215.7333 814.58,-205.7333 807.58,-205.7333"/>
</g>
<!-- DateFormatPipe  -->
<g id="node9" class="node">
<title>DateFormatPipe </title>
<polygon fill="#fb8072" stroke="#000000" points="753.7535,-252 642.2465,-252 642.2465,-216 753.7535,-216 753.7535,-252"/>
<text text-anchor="middle" x="698" y="-229.8" font-family="Times,serif" font-size="14.00" fill="#000000">DateFormatPipe </text>
</g>
<!-- FormFieldsModule&#45;&gt;DateFormatPipe  -->
<g id="edge8" class="edge">
<title>FormFieldsModule&#45;&gt;DateFormatPipe </title>
<path fill="none" stroke="#000000" stroke-dasharray="5,2" d="M450.1853,-177C535.36,-177 677.8745,-177 677.8745,-177 677.8745,-177 677.8745,-205.9648 677.8745,-205.9648"/>
<polygon fill="#000000" stroke="#000000" points="674.3746,-205.9648 677.8745,-215.9648 681.3746,-205.9649 674.3746,-205.9648"/>
</g>
<!-- InputGroupComponent  -->
<g id="node10" class="node">
<title>InputGroupComponent </title>
<polygon fill="#fb8072" stroke="#000000" points="624.1509,-252 473.8491,-252 473.8491,-216 624.1509,-216 624.1509,-252"/>
<text text-anchor="middle" x="549" y="-229.8" font-family="Times,serif" font-size="14.00" fill="#000000">InputGroupComponent </text>
</g>
<!-- FormFieldsModule&#45;&gt;InputGroupComponent  -->
<g id="edge9" class="edge">
<title>FormFieldsModule&#45;&gt;InputGroupComponent </title>
<path fill="none" stroke="#000000" stroke-dasharray="5,2" d="M450.0824,-182C504.3184,-182 574.4418,-182 574.4418,-182 574.4418,-182 574.4418,-205.8129 574.4418,-205.8129"/>
<polygon fill="#000000" stroke="#000000" points="570.9419,-205.8129 574.4418,-215.8129 577.9419,-205.813 570.9419,-205.8129"/>
</g>
<!-- InputSimpleComponent  -->
<g id="node11" class="node">
<title>InputSimpleComponent </title>
<polygon fill="#fb8072" stroke="#000000" points="456.0526,-252 301.9474,-252 301.9474,-216 456.0526,-216 456.0526,-252"/>
<text text-anchor="middle" x="379" y="-229.8" font-family="Times,serif" font-size="14.00" fill="#000000">InputSimpleComponent </text>
</g>
<!-- FormFieldsModule&#45;&gt;InputSimpleComponent  -->
<g id="edge10" class="edge">
<title>FormFieldsModule&#45;&gt;InputSimpleComponent </title>
<path fill="none" stroke="#000000" stroke-dasharray="5,2" d="M388,-187.1061C388,-187.1061 388,-205.991 388,-205.991"/>
<polygon fill="#000000" stroke="#000000" points="384.5001,-205.9909 388,-215.991 391.5001,-205.991 384.5001,-205.9909"/>
</g>
<!-- LimitToPipe  -->
<g id="node12" class="node">
<title>LimitToPipe </title>
<polygon fill="#fb8072" stroke="#000000" points="283.5554,-252 192.4446,-252 192.4446,-216 283.5554,-216 283.5554,-252"/>
<text text-anchor="middle" x="238" y="-229.8" font-family="Times,serif" font-size="14.00" fill="#000000">LimitToPipe </text>
</g>
<!-- FormFieldsModule&#45;&gt;LimitToPipe  -->
<g id="edge11" class="edge">
<title>FormFieldsModule&#45;&gt;LimitToPipe </title>
<path fill="none" stroke="#000000" stroke-dasharray="5,2" d="M325.7425,-180C281.2885,-180 229.3241,-180 229.3241,-180 229.3241,-180 229.3241,-205.7181 229.3241,-205.7181"/>
<polygon fill="#000000" stroke="#000000" points="225.8242,-205.718 229.3241,-215.7181 232.8242,-205.7181 225.8242,-205.718"/>
</g>
<!-- TimePickerComponent  -->
<g id="node13" class="node">
<title>TimePickerComponent </title>
<polygon fill="#fb8072" stroke="#000000" points="174.1439,-252 23.8561,-252 23.8561,-216 174.1439,-216 174.1439,-252"/>
<text text-anchor="middle" x="99" y="-229.8" font-family="Times,serif" font-size="14.00" fill="#000000">TimePickerComponent </text>
</g>
<!-- FormFieldsModule&#45;&gt;TimePickerComponent  -->
<g id="edge12" class="edge">
<title>FormFieldsModule&#45;&gt;TimePickerComponent </title>
<path fill="none" stroke="#000000" stroke-dasharray="5,2" d="M325.7372,-173C242.6544,-173 105.875,-173 105.875,-173 105.875,-173 105.875,-205.698 105.875,-205.698"/>
<polygon fill="#000000" stroke="#000000" points="102.3751,-205.698 105.875,-215.698 109.3751,-205.698 102.3751,-205.698"/>
</g>
</g>
</svg>
