<?xml version="1.0" encoding="UTF-8" standalone="no"?>
<!DOCTYPE svg PUBLIC "-//W3C//DTD SVG 1.1//EN"
 "http://www.w3.org/Graphics/SVG/1.1/DTD/svg11.dtd">
<!-- Generated by graphviz version 2.40.1 (20161225.0304)
 -->
<!-- Title: dependencies Pages: 1 -->
<svg width="2591pt" height="211pt"
 viewBox="0.00 0.00 2591.00 211.00" xmlns="http://www.w3.org/2000/svg" xmlns:xlink="http://www.w3.org/1999/xlink">
<g id="graph0" class="graph" transform="scale(1 1) rotate(0) translate(4 207)">
<title>dependencies</title>
<polygon fill="#ffffff" stroke="transparent" points="-4,4 -4,-207 2587,-207 2587,4 -4,4"/>
<text text-anchor="start" x="1270.5091" y="-42.4" font-family="sans-serif" font-weight="bold" font-size="14.00" fill="#000000">Legend</text>
<polygon fill="#ffffb3" stroke="transparent" points="1057.5,-10 1057.5,-30 1077.5,-30 1077.5,-10 1057.5,-10"/>
<text text-anchor="start" x="1081.129" y="-15.4" font-family="sans-serif" font-size="14.00" fill="#000000"> &#160;Declarations</text>
<polygon fill="#8dd3c7" stroke="transparent" points="1170.5,-10 1170.5,-30 1190.5,-30 1190.5,-10 1170.5,-10"/>
<text text-anchor="start" x="1194.2251" y="-15.4" font-family="sans-serif" font-size="14.00" fill="#000000"> &#160;Module</text>
<polygon fill="#80b1d3" stroke="transparent" points="1256.5,-10 1256.5,-30 1276.5,-30 1276.5,-10 1256.5,-10"/>
<text text-anchor="start" x="1280.2812" y="-15.4" font-family="sans-serif" font-size="14.00" fill="#000000"> &#160;Bootstrap</text>
<polygon fill="#fdb462" stroke="transparent" points="1353.5,-10 1353.5,-30 1373.5,-30 1373.5,-10 1353.5,-10"/>
<text text-anchor="start" x="1377.1732" y="-15.4" font-family="sans-serif" font-size="14.00" fill="#000000"> &#160;Providers</text>
<polygon fill="#fb8072" stroke="transparent" points="1449.5,-10 1449.5,-30 1469.5,-30 1469.5,-10 1449.5,-10"/>
<text text-anchor="start" x="1473.2258" y="-15.4" font-family="sans-serif" font-size="14.00" fill="#000000"> &#160;Exports</text>
<g id="clust1" class="cluster">
<title>cluster_MeetingsModule</title>
<polygon fill="none" stroke="#000000" stroke-dasharray="1,5" points="8,-70 8,-195 2575,-195 2575,-70 8,-70"/>
</g>
<g id="clust2" class="cluster">
<title>cluster_MeetingsModule_declarations</title>
<polygon fill="none" stroke="#000000" points="1091,-78 1091,-130 2567,-130 2567,-78 1091,-78"/>
</g>
<g id="clust12" class="cluster">
<title>cluster_MeetingsModule_imports</title>
<polygon fill="none" stroke="#000000" points="540,-78 540,-130 1083,-130 1083,-78 540,-78"/>
</g>
<g id="clust15" class="cluster">
<title>cluster_MeetingsModule_providers</title>
<polygon fill="none" stroke="#000000" points="16,-78 16,-130 532,-130 532,-78 16,-78"/>
</g>
<!-- CalendarComponent -->
<g id="node1" class="node">
<title>CalendarComponent</title>
<polygon fill="#ffffb3" stroke="#000000" points="2558.8641,-122 2427.1359,-122 2427.1359,-86 2558.8641,-86 2558.8641,-122"/>
<text text-anchor="middle" x="2493" y="-99.8" font-family="Times,serif" font-size="14.00" fill="#000000">CalendarComponent</text>
</g>
<!-- MeetingsModule -->
<g id="node10" class="node">
<title>MeetingsModule</title>
<polygon fill="#8dd3c7" stroke="#000000" points="1306.6499,-187 1303.6499,-191 1282.6499,-191 1279.6499,-187 1195.3501,-187 1195.3501,-151 1306.6499,-151 1306.6499,-187"/>
<text text-anchor="middle" x="1251" y="-164.8" font-family="Times,serif" font-size="14.00" fill="#000000">MeetingsModule</text>
</g>
<!-- CalendarComponent&#45;&gt;MeetingsModule -->
<g id="edge1" class="edge">
<title>CalendarComponent&#45;&gt;MeetingsModule</title>
<path fill="none" stroke="#000000" d="M2493,-122.3228C2493,-145.6602 2493,-183 2493,-183 2493,-183 1316.779,-183 1316.779,-183"/>
<polygon fill="#000000" stroke="#000000" points="1316.779,-179.5001 1306.779,-183 1316.779,-186.5001 1316.779,-179.5001"/>
</g>
<!-- CalendarEditComponent -->
<g id="node2" class="node">
<title>CalendarEditComponent</title>
<polygon fill="#ffffb3" stroke="#000000" points="2408.6979,-122 2253.3021,-122 2253.3021,-86 2408.6979,-86 2408.6979,-122"/>
<text text-anchor="middle" x="2331" y="-99.8" font-family="Times,serif" font-size="14.00" fill="#000000">CalendarEditComponent</text>
</g>
<!-- CalendarEditComponent&#45;&gt;MeetingsModule -->
<g id="edge2" class="edge">
<title>CalendarEditComponent&#45;&gt;MeetingsModule</title>
<path fill="none" stroke="#000000" d="M2331,-122.2921C2331,-144.2057 2331,-178 2331,-178 2331,-178 1316.7913,-178 1316.7913,-178"/>
<polygon fill="#000000" stroke="#000000" points="1316.7913,-174.5001 1306.7913,-178 1316.7912,-181.5001 1316.7913,-174.5001"/>
</g>
<!-- EditEventComponent -->
<g id="node3" class="node">
<title>EditEventComponent</title>
<polygon fill="#ffffb3" stroke="#000000" points="2235.8244,-122 2098.1756,-122 2098.1756,-86 2235.8244,-86 2235.8244,-122"/>
<text text-anchor="middle" x="2167" y="-99.8" font-family="Times,serif" font-size="14.00" fill="#000000">EditEventComponent</text>
</g>
<!-- EditEventComponent&#45;&gt;MeetingsModule -->
<g id="edge3" class="edge">
<title>EditEventComponent&#45;&gt;MeetingsModule</title>
<path fill="none" stroke="#000000" d="M2167,-122.0267C2167,-142.7672 2167,-174 2167,-174 2167,-174 1316.921,-174 1316.921,-174"/>
<polygon fill="#000000" stroke="#000000" points="1316.9211,-170.5001 1306.921,-174 1316.921,-177.5001 1316.9211,-170.5001"/>
</g>
<!-- JqxSchedulerComponent -->
<g id="node4" class="node">
<title>JqxSchedulerComponent</title>
<polygon fill="#ffffb3" stroke="#000000" points="2080.2548,-122 1923.7452,-122 1923.7452,-86 2080.2548,-86 2080.2548,-122"/>
<text text-anchor="middle" x="2002" y="-99.8" font-family="Times,serif" font-size="14.00" fill="#000000">JqxSchedulerComponent</text>
</g>
<!-- JqxSchedulerComponent&#45;&gt;MeetingsModule -->
<g id="edge4" class="edge">
<title>JqxSchedulerComponent&#45;&gt;MeetingsModule</title>
<path fill="none" stroke="#000000" d="M2002,-122.1061C2002,-141.3391 2002,-169 2002,-169 2002,-169 1316.8335,-169 1316.8335,-169"/>
<polygon fill="#000000" stroke="#000000" points="1316.8335,-165.5001 1306.8335,-169 1316.8335,-172.5001 1316.8335,-165.5001"/>
</g>
<!-- JqxSchedulerTestComponent -->
<g id="node5" class="node">
<title>JqxSchedulerTestComponent</title>
<polygon fill="#ffffb3" stroke="#000000" points="1905.3571,-122 1724.6429,-122 1724.6429,-86 1905.3571,-86 1905.3571,-122"/>
<text text-anchor="middle" x="1815" y="-99.8" font-family="Times,serif" font-size="14.00" fill="#000000">JqxSchedulerTestComponent</text>
</g>
<!-- JqxSchedulerTestComponent&#45;&gt;MeetingsModule -->
<g id="edge5" class="edge">
<title>JqxSchedulerTestComponent&#45;&gt;MeetingsModule</title>
<path fill="none" stroke="#000000" d="M1815,-122.302C1815,-140.2699 1815,-165 1815,-165 1815,-165 1316.881,-165 1316.881,-165"/>
<polygon fill="#000000" stroke="#000000" points="1316.881,-161.5001 1306.881,-165 1316.8809,-168.5001 1316.881,-161.5001"/>
</g>
<!-- MeetingsComponent -->
<g id="node6" class="node">
<title>MeetingsComponent</title>
<polygon fill="#ffffb3" stroke="#000000" points="1706.9327,-122 1573.0673,-122 1573.0673,-86 1706.9327,-86 1706.9327,-122"/>
<text text-anchor="middle" x="1640" y="-99.8" font-family="Times,serif" font-size="14.00" fill="#000000">MeetingsComponent</text>
</g>
<!-- MeetingsComponent&#45;&gt;MeetingsModule -->
<g id="edge6" class="edge">
<title>MeetingsComponent&#45;&gt;MeetingsModule</title>
<path fill="none" stroke="#000000" d="M1640,-122.027C1640,-138.3976 1640,-160 1640,-160 1640,-160 1316.7342,-160 1316.7342,-160"/>
<polygon fill="#000000" stroke="#000000" points="1316.7343,-156.5001 1306.7342,-160 1316.7342,-163.5001 1316.7343,-156.5001"/>
</g>
<!-- NavbarComponent -->
<g id="node7" class="node">
<title>NavbarComponent</title>
<polygon fill="#ffffb3" stroke="#000000" points="1555.0297,-122 1432.9703,-122 1432.9703,-86 1555.0297,-86 1555.0297,-122"/>
<text text-anchor="middle" x="1494" y="-99.8" font-family="Times,serif" font-size="14.00" fill="#000000">NavbarComponent</text>
</g>
<!-- NavbarComponent&#45;&gt;MeetingsModule -->
<g id="edge7" class="edge">
<title>NavbarComponent&#45;&gt;MeetingsModule</title>
<path fill="none" stroke="#000000" d="M1494,-122.1871C1494,-137.1824 1494,-156 1494,-156 1494,-156 1316.7491,-156 1316.7491,-156"/>
<polygon fill="#000000" stroke="#000000" points="1316.7491,-152.5001 1306.7491,-156 1316.7491,-159.5001 1316.7491,-152.5001"/>
</g>
<!-- PreviewEventComponent -->
<g id="node8" class="node">
<title>PreviewEventComponent</title>
<polygon fill="#ffffb3" stroke="#000000" points="1414.8599,-122 1255.1401,-122 1255.1401,-86 1414.8599,-86 1414.8599,-122"/>
<text text-anchor="middle" x="1335" y="-99.8" font-family="Times,serif" font-size="14.00" fill="#000000">PreviewEventComponent</text>
</g>
<!-- PreviewEventComponent&#45;&gt;MeetingsModule -->
<g id="edge8" class="edge">
<title>PreviewEventComponent&#45;&gt;MeetingsModule</title>
<path fill="none" stroke="#000000" d="M1280.9474,-122.1061C1280.9474,-122.1061 1280.9474,-140.991 1280.9474,-140.991"/>
<polygon fill="#000000" stroke="#000000" points="1277.4475,-140.9909 1280.9474,-150.991 1284.4475,-140.991 1277.4475,-140.9909"/>
</g>
<!-- SchedulerComponent -->
<g id="node9" class="node">
<title>SchedulerComponent</title>
<polygon fill="#ffffb3" stroke="#000000" points="1236.8104,-122 1099.1896,-122 1099.1896,-86 1236.8104,-86 1236.8104,-122"/>
<text text-anchor="middle" x="1168" y="-99.8" font-family="Times,serif" font-size="14.00" fill="#000000">SchedulerComponent</text>
</g>
<!-- SchedulerComponent&#45;&gt;MeetingsModule -->
<g id="edge9" class="edge">
<title>SchedulerComponent&#45;&gt;MeetingsModule</title>
<path fill="none" stroke="#000000" d="M1215.9152,-122.1061C1215.9152,-122.1061 1215.9152,-140.991 1215.9152,-140.991"/>
<polygon fill="#000000" stroke="#000000" points="1212.4152,-140.9909 1215.9152,-150.991 1219.4152,-140.991 1212.4152,-140.9909"/>
</g>
<!-- MeetingsRoutingModule -->
<g id="node11" class="node">
<title>MeetingsRoutingModule</title>
<polygon fill="#8dd3c7" stroke="#000000" points="1075.2674,-122 1072.2674,-126 1051.2674,-126 1048.2674,-122 918.7326,-122 918.7326,-86 1075.2674,-86 1075.2674,-122"/>
<text text-anchor="middle" x="997" y="-99.8" font-family="Times,serif" font-size="14.00" fill="#000000">MeetingsRoutingModule</text>
</g>
<!-- MeetingsRoutingModule&#45;&gt;MeetingsModule -->
<g id="edge10" class="edge">
<title>MeetingsRoutingModule&#45;&gt;MeetingsModule</title>
<path fill="none" stroke="#000000" d="M997,-122.1871C997,-137.1824 997,-156 997,-156 997,-156 1185.2586,-156 1185.2586,-156"/>
<polygon fill="#000000" stroke="#000000" points="1185.2587,-159.5001 1195.2586,-156 1185.2586,-152.5001 1185.2587,-159.5001"/>
</g>
<!-- MinicalModule -->
<g id="node12" class="node">
<title>MinicalModule</title>
<polygon fill="#8dd3c7" stroke="#000000" points="900.5954,-122 897.5954,-126 876.5954,-126 873.5954,-122 797.4046,-122 797.4046,-86 900.5954,-86 900.5954,-122"/>
<text text-anchor="middle" x="849" y="-99.8" font-family="Times,serif" font-size="14.00" fill="#000000">MinicalModule</text>
</g>
<!-- MinicalModule&#45;&gt;MeetingsModule -->
<g id="edge11" class="edge">
<title>MinicalModule&#45;&gt;MeetingsModule</title>
<path fill="none" stroke="#000000" d="M849,-122.027C849,-138.3976 849,-160 849,-160 849,-160 1185.1036,-160 1185.1036,-160"/>
<polygon fill="#000000" stroke="#000000" points="1185.1037,-163.5001 1195.1036,-160 1185.1036,-156.5001 1185.1037,-163.5001"/>
</g>
<!-- SchedulerModule -->
<g id="node13" class="node">
<title>SchedulerModule</title>
<polygon fill="#8dd3c7" stroke="#000000" points="779.5284,-122 776.5284,-126 755.5284,-126 752.5284,-122 664.4716,-122 664.4716,-86 779.5284,-86 779.5284,-122"/>
<text text-anchor="middle" x="722" y="-99.8" font-family="Times,serif" font-size="14.00" fill="#000000">SchedulerModule</text>
</g>
<!-- SchedulerModule&#45;&gt;MeetingsModule -->
<g id="edge12" class="edge">
<title>SchedulerModule&#45;&gt;MeetingsModule</title>
<path fill="none" stroke="#000000" d="M722,-122.302C722,-140.2699 722,-165 722,-165 722,-165 1184.8886,-165 1184.8886,-165"/>
<polygon fill="#000000" stroke="#000000" points="1184.8886,-168.5001 1194.8886,-165 1184.8885,-161.5001 1184.8886,-168.5001"/>
</g>
<!-- SharedModule -->
<g id="node14" class="node">
<title>SharedModule</title>
<polygon fill="#8dd3c7" stroke="#000000" points="646.4231,-122 643.4231,-126 622.4231,-126 619.4231,-122 547.5769,-122 547.5769,-86 646.4231,-86 646.4231,-122"/>
<text text-anchor="middle" x="597" y="-99.8" font-family="Times,serif" font-size="14.00" fill="#000000">SharedModule</text>
</g>
<!-- SharedModule&#45;&gt;MeetingsModule -->
<g id="edge13" class="edge">
<title>SharedModule&#45;&gt;MeetingsModule</title>
<path fill="none" stroke="#000000" d="M597,-122.1061C597,-141.3391 597,-169 597,-169 597,-169 1185.2403,-169 1185.2403,-169"/>
<polygon fill="#000000" stroke="#000000" points="1185.2404,-172.5001 1195.2403,-169 1185.2403,-165.5001 1185.2404,-172.5001"/>
</g>
<!-- EventService -->
<g id="node15" class="node">
<title>EventService</title>
<ellipse fill="#fdb462" stroke="#000000" cx="461" cy="-104" rx="62.5373" ry="18"/>
<text text-anchor="middle" x="461" y="-99.8" font-family="Times,serif" font-size="14.00" fill="#000000">EventService</text>
</g>
<!-- EventService&#45;&gt;MeetingsModule -->
<g id="edge14" class="edge">
<title>EventService&#45;&gt;MeetingsModule</title>
<path fill="none" stroke="#000000" d="M461,-122.0267C461,-142.7672 461,-174 461,-174 461,-174 1185.134,-174 1185.134,-174"/>
<polygon fill="#000000" stroke="#000000" points="1185.134,-177.5001 1195.134,-174 1185.1339,-170.5001 1185.134,-177.5001"/>
</g>
<!-- EventsQueryService -->
<g id="node16" class="node">
<title>EventsQueryService</title>
<ellipse fill="#fdb462" stroke="#000000" cx="290" cy="-104" rx="90.3082" ry="18"/>
<text text-anchor="middle" x="290" y="-99.8" font-family="Times,serif" font-size="14.00" fill="#000000">EventsQueryService</text>
</g>
<!-- EventsQueryService&#45;&gt;MeetingsModule -->
<g id="edge15" class="edge">
<title>EventsQueryService&#45;&gt;MeetingsModule</title>
<path fill="none" stroke="#000000" d="M290,-122.2921C290,-144.2057 290,-178 290,-178 290,-178 1185.1788,-178 1185.1788,-178"/>
<polygon fill="#000000" stroke="#000000" points="1185.1788,-181.5001 1195.1788,-178 1185.1788,-174.5001 1185.1788,-181.5001"/>
</g>
<!-- SchedulerService -->
<g id="node17" class="node">
<title>SchedulerService</title>
<ellipse fill="#fdb462" stroke="#000000" cx="103" cy="-104" rx="78.7086" ry="18"/>
<text text-anchor="middle" x="103" y="-99.8" font-family="Times,serif" font-size="14.00" fill="#000000">SchedulerService</text>
</g>
<!-- SchedulerService&#45;&gt;MeetingsModule -->
<g id="edge16" class="edge">
<title>SchedulerService&#45;&gt;MeetingsModule</title>
<path fill="none" stroke="#000000" d="M103,-122.3228C103,-145.6602 103,-183 103,-183 103,-183 1185.2416,-183 1185.2416,-183"/>
<polygon fill="#000000" stroke="#000000" points="1185.2416,-186.5001 1195.2416,-183 1185.2416,-179.5001 1185.2416,-186.5001"/>
</g>
</g>
</svg>
