<?xml version="1.0" encoding="UTF-8" standalone="no"?>
<!DOCTYPE svg PUBLIC "-//W3C//DTD SVG 1.1//EN"
 "http://www.w3.org/Graphics/SVG/1.1/DTD/svg11.dtd">
<!-- Generated by graphviz version 2.40.1 (20161225.0304)
 -->
<!-- Title: dependencies Pages: 1 -->
<svg width="2608pt" height="211pt"
 viewBox="0.00 0.00 2608.00 211.00" xmlns="http://www.w3.org/2000/svg" xmlns:xlink="http://www.w3.org/1999/xlink">
<g id="graph0" class="graph" transform="scale(1 1) rotate(0) translate(4 207)">
<title>dependencies</title>
<polygon fill="#ffffff" stroke="transparent" points="-4,4 -4,-207 2604,-207 2604,4 -4,4"/>
<text text-anchor="start" x="1279.0091" y="-42.4" font-family="sans-serif" font-weight="bold" font-size="14.00" fill="#000000">Legend</text>
<polygon fill="#ffffb3" stroke="transparent" points="1066,-10 1066,-30 1086,-30 1086,-10 1066,-10"/>
<text text-anchor="start" x="1089.629" y="-15.4" font-family="sans-serif" font-size="14.00" fill="#000000"> &#160;Declarations</text>
<polygon fill="#8dd3c7" stroke="transparent" points="1179,-10 1179,-30 1199,-30 1199,-10 1179,-10"/>
<text text-anchor="start" x="1202.7251" y="-15.4" font-family="sans-serif" font-size="14.00" fill="#000000"> &#160;Module</text>
<polygon fill="#80b1d3" stroke="transparent" points="1265,-10 1265,-30 1285,-30 1285,-10 1265,-10"/>
<text text-anchor="start" x="1288.7812" y="-15.4" font-family="sans-serif" font-size="14.00" fill="#000000"> &#160;Bootstrap</text>
<polygon fill="#fdb462" stroke="transparent" points="1362,-10 1362,-30 1382,-30 1382,-10 1362,-10"/>
<text text-anchor="start" x="1385.6732" y="-15.4" font-family="sans-serif" font-size="14.00" fill="#000000"> &#160;Providers</text>
<polygon fill="#fb8072" stroke="transparent" points="1458,-10 1458,-30 1478,-30 1478,-10 1458,-10"/>
<text text-anchor="start" x="1481.7258" y="-15.4" font-family="sans-serif" font-size="14.00" fill="#000000"> &#160;Exports</text>
<g id="clust1" class="cluster">
<title>cluster_MeetingsModule</title>
<polygon fill="none" stroke="#000000" stroke-dasharray="1,5" points="8,-70 8,-195 2592,-195 2592,-70 8,-70"/>
</g>
<g id="clust2" class="cluster">
<title>cluster_MeetingsModule_declarations</title>
<polygon fill="none" stroke="#000000" points="1091,-78 1091,-130 2584,-130 2584,-78 1091,-78"/>
</g>
<g id="clust12" class="cluster">
<title>cluster_MeetingsModule_imports</title>
<polygon fill="none" stroke="#000000" points="540,-78 540,-130 1083,-130 1083,-78 540,-78"/>
</g>
<g id="clust15" class="cluster">
<title>cluster_MeetingsModule_providers</title>
<polygon fill="none" stroke="#000000" points="16,-78 16,-130 532,-130 532,-78 16,-78"/>
</g>
<!-- EditEventComponent -->
<g id="node1" class="node">
<title>EditEventComponent</title>
<polygon fill="#ffffb3" stroke="#000000" points="2575.8244,-122 2438.1756,-122 2438.1756,-86 2575.8244,-86 2575.8244,-122"/>
<text text-anchor="middle" x="2507" y="-99.8" font-family="Times,serif" font-size="14.00" fill="#000000">EditEventComponent</text>
</g>
<!-- MeetingsModule -->
<g id="node10" class="node">
<title>MeetingsModule</title>
<polygon fill="#8dd3c7" stroke="#000000" points="1298.6499,-187 1295.6499,-191 1274.6499,-191 1271.6499,-187 1187.3501,-187 1187.3501,-151 1298.6499,-151 1298.6499,-187"/>
<text text-anchor="middle" x="1243" y="-164.8" font-family="Times,serif" font-size="14.00" fill="#000000">MeetingsModule</text>
</g>
<!-- EditEventComponent&#45;&gt;MeetingsModule -->
<g id="edge1" class="edge">
<title>EditEventComponent&#45;&gt;MeetingsModule</title>
<path fill="none" stroke="#000000" d="M2507,-122.3228C2507,-145.6602 2507,-183 2507,-183 2507,-183 1308.9434,-183 1308.9434,-183"/>
<polygon fill="#000000" stroke="#000000" points="1308.9435,-179.5001 1298.9434,-183 1308.9434,-186.5001 1308.9435,-179.5001"/>
</g>
<!-- JqxSchedulerComponent -->
<g id="node2" class="node">
<title>JqxSchedulerComponent</title>
<polygon fill="#ffffb3" stroke="#000000" points="2420.2548,-122 2263.7452,-122 2263.7452,-86 2420.2548,-86 2420.2548,-122"/>
<text text-anchor="middle" x="2342" y="-99.8" font-family="Times,serif" font-size="14.00" fill="#000000">JqxSchedulerComponent</text>
</g>
<!-- JqxSchedulerComponent&#45;&gt;MeetingsModule -->
<g id="edge2" class="edge">
<title>JqxSchedulerComponent&#45;&gt;MeetingsModule</title>
<path fill="none" stroke="#000000" d="M2342,-122.2921C2342,-144.2057 2342,-178 2342,-178 2342,-178 1309.0105,-178 1309.0105,-178"/>
<polygon fill="#000000" stroke="#000000" points="1309.0105,-174.5001 1299.0105,-178 1309.0104,-181.5001 1309.0105,-174.5001"/>
</g>
<!-- JqxSchedulerTestComponent -->
<g id="node3" class="node">
<title>JqxSchedulerTestComponent</title>
<polygon fill="#ffffb3" stroke="#000000" points="2245.3571,-122 2064.6429,-122 2064.6429,-86 2245.3571,-86 2245.3571,-122"/>
<text text-anchor="middle" x="2155" y="-99.8" font-family="Times,serif" font-size="14.00" fill="#000000">JqxSchedulerTestComponent</text>
</g>
<!-- JqxSchedulerTestComponent&#45;&gt;MeetingsModule -->
<g id="edge3" class="edge">
<title>JqxSchedulerTestComponent&#45;&gt;MeetingsModule</title>
<path fill="none" stroke="#000000" d="M2155,-122.0267C2155,-142.7672 2155,-174 2155,-174 2155,-174 1308.6768,-174 1308.6768,-174"/>
<polygon fill="#000000" stroke="#000000" points="1308.6769,-170.5001 1298.6768,-174 1308.6768,-177.5001 1308.6769,-170.5001"/>
</g>
<!-- MeetingsComponent -->
<g id="node4" class="node">
<title>MeetingsComponent</title>
<polygon fill="#ffffb3" stroke="#000000" points="2046.9327,-122 1913.0673,-122 1913.0673,-86 2046.9327,-86 2046.9327,-122"/>
<text text-anchor="middle" x="1980" y="-99.8" font-family="Times,serif" font-size="14.00" fill="#000000">MeetingsComponent</text>
</g>
<!-- MeetingsComponent&#45;&gt;MeetingsModule -->
<g id="edge4" class="edge">
<title>MeetingsComponent&#45;&gt;MeetingsModule</title>
<path fill="none" stroke="#000000" d="M1980,-122.1061C1980,-141.3391 1980,-169 1980,-169 1980,-169 1308.6969,-169 1308.6969,-169"/>
<polygon fill="#000000" stroke="#000000" points="1308.6969,-165.5001 1298.6969,-169 1308.6969,-172.5001 1308.6969,-165.5001"/>
</g>
<!-- NavbarComponent -->
<g id="node5" class="node">
<title>NavbarComponent</title>
<polygon fill="#ffffb3" stroke="#000000" points="1895.0297,-122 1772.9703,-122 1772.9703,-86 1895.0297,-86 1895.0297,-122"/>
<text text-anchor="middle" x="1834" y="-99.8" font-family="Times,serif" font-size="14.00" fill="#000000">NavbarComponent</text>
</g>
<!-- NavbarComponent&#45;&gt;MeetingsModule -->
<g id="edge5" class="edge">
<title>NavbarComponent&#45;&gt;MeetingsModule</title>
<path fill="none" stroke="#000000" d="M1834,-122.302C1834,-140.2699 1834,-165 1834,-165 1834,-165 1308.866,-165 1308.866,-165"/>
<polygon fill="#000000" stroke="#000000" points="1308.866,-161.5001 1298.866,-165 1308.866,-168.5001 1308.866,-161.5001"/>
</g>
<!-- PreviewEventComponent -->
<g id="node6" class="node">
<title>PreviewEventComponent</title>
<polygon fill="#ffffb3" stroke="#000000" points="1754.8599,-122 1595.1401,-122 1595.1401,-86 1754.8599,-86 1754.8599,-122"/>
<text text-anchor="middle" x="1675" y="-99.8" font-family="Times,serif" font-size="14.00" fill="#000000">PreviewEventComponent</text>
</g>
<!-- PreviewEventComponent&#45;&gt;MeetingsModule -->
<g id="edge6" class="edge">
<title>PreviewEventComponent&#45;&gt;MeetingsModule</title>
<path fill="none" stroke="#000000" d="M1675,-122.027C1675,-138.3976 1675,-160 1675,-160 1675,-160 1309.0336,-160 1309.0336,-160"/>
<polygon fill="#000000" stroke="#000000" points="1309.0336,-156.5001 1299.0336,-160 1309.0335,-163.5001 1309.0336,-156.5001"/>
</g>
<!-- RecurringEventComponent -->
<g id="node7" class="node">
<title>RecurringEventComponent</title>
<polygon fill="#ffffb3" stroke="#000000" points="1576.9678,-122 1407.0322,-122 1407.0322,-86 1576.9678,-86 1576.9678,-122"/>
<text text-anchor="middle" x="1492" y="-99.8" font-family="Times,serif" font-size="14.00" fill="#000000">RecurringEventComponent</text>
</g>
<!-- RecurringEventComponent&#45;&gt;MeetingsModule -->
<g id="edge7" class="edge">
<title>RecurringEventComponent&#45;&gt;MeetingsModule</title>
<path fill="none" stroke="#000000" d="M1492,-122.1871C1492,-137.1824 1492,-156 1492,-156 1492,-156 1308.8805,-156 1308.8805,-156"/>
<polygon fill="#000000" stroke="#000000" points="1308.8805,-152.5001 1298.8805,-156 1308.8804,-159.5001 1308.8805,-152.5001"/>
</g>
<!-- SchedulerComponent -->
<g id="node8" class="node">
<title>SchedulerComponent</title>
<polygon fill="#ffffb3" stroke="#000000" points="1388.8104,-122 1251.1896,-122 1251.1896,-86 1388.8104,-86 1388.8104,-122"/>
<text text-anchor="middle" x="1320" y="-99.8" font-family="Times,serif" font-size="14.00" fill="#000000">SchedulerComponent</text>
</g>
<!-- SchedulerComponent&#45;&gt;MeetingsModule -->
<g id="edge8" class="edge">
<title>SchedulerComponent&#45;&gt;MeetingsModule</title>
<path fill="none" stroke="#000000" d="M1275.0849,-122.1061C1275.0849,-122.1061 1275.0849,-140.991 1275.0849,-140.991"/>
<polygon fill="#000000" stroke="#000000" points="1271.5849,-140.9909 1275.0849,-150.991 1278.5849,-140.991 1271.5849,-140.9909"/>
</g>
<!-- TestTimeComponent -->
<g id="node9" class="node">
<title>TestTimeComponent</title>
<polygon fill="#ffffb3" stroke="#000000" points="1233.4832,-122 1098.5168,-122 1098.5168,-86 1233.4832,-86 1233.4832,-122"/>
<text text-anchor="middle" x="1166" y="-99.8" font-family="Times,serif" font-size="14.00" fill="#000000">TestTimeComponent</text>
</g>
<!-- TestTimeComponent&#45;&gt;MeetingsModule -->
<g id="edge9" class="edge">
<title>TestTimeComponent&#45;&gt;MeetingsModule</title>
<path fill="none" stroke="#000000" d="M1210.3335,-122.1061C1210.3335,-122.1061 1210.3335,-140.991 1210.3335,-140.991"/>
<polygon fill="#000000" stroke="#000000" points="1206.8335,-140.9909 1210.3335,-150.991 1213.8335,-140.991 1206.8335,-140.9909"/>
</g>
<!-- MeetingsRoutingModule -->
<g id="node11" class="node">
<title>MeetingsRoutingModule</title>
<polygon fill="#8dd3c7" stroke="#000000" points="1075.2674,-122 1072.2674,-126 1051.2674,-126 1048.2674,-122 918.7326,-122 918.7326,-86 1075.2674,-86 1075.2674,-122"/>
<text text-anchor="middle" x="997" y="-99.8" font-family="Times,serif" font-size="14.00" fill="#000000">MeetingsRoutingModule</text>
</g>
<!-- MeetingsRoutingModule&#45;&gt;MeetingsModule -->
<g id="edge10" class="edge">
<title>MeetingsRoutingModule&#45;&gt;MeetingsModule</title>
<path fill="none" stroke="#000000" d="M997,-122.1871C997,-137.1824 997,-156 997,-156 997,-156 1177.1788,-156 1177.1788,-156"/>
<polygon fill="#000000" stroke="#000000" points="1177.1788,-159.5001 1187.1788,-156 1177.1788,-152.5001 1177.1788,-159.5001"/>
</g>
<!-- MinicalModule -->
<g id="node12" class="node">
<title>MinicalModule</title>
<polygon fill="#8dd3c7" stroke="#000000" points="900.5954,-122 897.5954,-126 876.5954,-126 873.5954,-122 797.4046,-122 797.4046,-86 900.5954,-86 900.5954,-122"/>
<text text-anchor="middle" x="849" y="-99.8" font-family="Times,serif" font-size="14.00" fill="#000000">MinicalModule</text>
</g>
<!-- MinicalModule&#45;&gt;MeetingsModule -->
<g id="edge11" class="edge">
<title>MinicalModule&#45;&gt;MeetingsModule</title>
<path fill="none" stroke="#000000" d="M849,-122.027C849,-138.3976 849,-160 849,-160 849,-160 1176.9678,-160 1176.9678,-160"/>
<polygon fill="#000000" stroke="#000000" points="1176.9679,-163.5001 1186.9678,-160 1176.9678,-156.5001 1176.9679,-163.5001"/>
</g>
<!-- SchedulerModule -->
<g id="node13" class="node">
<title>SchedulerModule</title>
<polygon fill="#8dd3c7" stroke="#000000" points="779.5284,-122 776.5284,-126 755.5284,-126 752.5284,-122 664.4716,-122 664.4716,-86 779.5284,-86 779.5284,-122"/>
<text text-anchor="middle" x="722" y="-99.8" font-family="Times,serif" font-size="14.00" fill="#000000">SchedulerModule</text>
</g>
<!-- SchedulerModule&#45;&gt;MeetingsModule -->
<g id="edge12" class="edge">
<title>SchedulerModule&#45;&gt;MeetingsModule</title>
<path fill="none" stroke="#000000" d="M722,-122.302C722,-140.2699 722,-165 722,-165 722,-165 1177.2439,-165 1177.2439,-165"/>
<polygon fill="#000000" stroke="#000000" points="1177.2439,-168.5001 1187.2439,-165 1177.2438,-161.5001 1177.2439,-168.5001"/>
</g>
<!-- SharedModule -->
<g id="node14" class="node">
<title>SharedModule</title>
<polygon fill="#8dd3c7" stroke="#000000" points="646.4231,-122 643.4231,-126 622.4231,-126 619.4231,-122 547.5769,-122 547.5769,-86 646.4231,-86 646.4231,-122"/>
<text text-anchor="middle" x="597" y="-99.8" font-family="Times,serif" font-size="14.00" fill="#000000">SharedModule</text>
</g>
<!-- SharedModule&#45;&gt;MeetingsModule -->
<g id="edge13" class="edge">
<title>SharedModule&#45;&gt;MeetingsModule</title>
<path fill="none" stroke="#000000" d="M597,-122.1061C597,-141.3391 597,-169 597,-169 597,-169 1177.0828,-169 1177.0828,-169"/>
<polygon fill="#000000" stroke="#000000" points="1177.0829,-172.5001 1187.0828,-169 1177.0828,-165.5001 1177.0829,-172.5001"/>
</g>
<!-- EventService -->
<g id="node15" class="node">
<title>EventService</title>
<ellipse fill="#fdb462" stroke="#000000" cx="461" cy="-104" rx="62.5373" ry="18"/>
<text text-anchor="middle" x="461" y="-99.8" font-family="Times,serif" font-size="14.00" fill="#000000">EventService</text>
</g>
<!-- EventService&#45;&gt;MeetingsModule -->
<g id="edge14" class="edge">
<title>EventService&#45;&gt;MeetingsModule</title>
<path fill="none" stroke="#000000" d="M461,-122.0267C461,-142.7672 461,-174 461,-174 461,-174 1177.0743,-174 1177.0743,-174"/>
<polygon fill="#000000" stroke="#000000" points="1177.0744,-177.5001 1187.0743,-174 1177.0743,-170.5001 1177.0744,-177.5001"/>
</g>
<!-- EventsQueryService -->
<g id="node16" class="node">
<title>EventsQueryService</title>
<ellipse fill="#fdb462" stroke="#000000" cx="290" cy="-104" rx="90.3082" ry="18"/>
<text text-anchor="middle" x="290" y="-99.8" font-family="Times,serif" font-size="14.00" fill="#000000">EventsQueryService</text>
</g>
<!-- EventsQueryService&#45;&gt;MeetingsModule -->
<g id="edge15" class="edge">
<title>EventsQueryService&#45;&gt;MeetingsModule</title>
<path fill="none" stroke="#000000" d="M290,-122.2921C290,-144.2057 290,-178 290,-178 290,-178 1177.2939,-178 1177.2939,-178"/>
<polygon fill="#000000" stroke="#000000" points="1177.294,-181.5001 1187.2939,-178 1177.2939,-174.5001 1177.294,-181.5001"/>
</g>
<!-- SchedulerService -->
<g id="node17" class="node">
<title>SchedulerService</title>
<ellipse fill="#fdb462" stroke="#000000" cx="103" cy="-104" rx="78.7086" ry="18"/>
<text text-anchor="middle" x="103" y="-99.8" font-family="Times,serif" font-size="14.00" fill="#000000">SchedulerService</text>
</g>
<!-- SchedulerService&#45;&gt;MeetingsModule -->
<g id="edge16" class="edge">
<title>SchedulerService&#45;&gt;MeetingsModule</title>
<path fill="none" stroke="#000000" d="M103,-122.3228C103,-145.6602 103,-183 103,-183 103,-183 1177.2437,-183 1177.2437,-183"/>
<polygon fill="#000000" stroke="#000000" points="1177.2438,-186.5001 1187.2437,-183 1177.2437,-179.5001 1177.2438,-186.5001"/>
</g>
</g>
</svg>
