<?xml version="1.0" encoding="UTF-8" standalone="no"?>
<!DOCTYPE svg PUBLIC "-//W3C//DTD SVG 1.1//EN"
 "http://www.w3.org/Graphics/SVG/1.1/DTD/svg11.dtd">
<!-- Generated by graphviz version 2.40.1 (20161225.0304)
 -->
<!-- Title: dependencies Pages: 1 -->
<svg width="504pt" height="349pt"
 viewBox="0.00 0.00 504.00 349.00" xmlns="http://www.w3.org/2000/svg" xmlns:xlink="http://www.w3.org/1999/xlink">
<g id="graph0" class="graph" transform="scale(1 1) rotate(0) translate(4 345)">
<title>dependencies</title>
<polygon fill="#ffffff" stroke="transparent" points="-4,4 -4,-345 500,-345 500,4 -4,4"/>
<text text-anchor="start" x="227.0091" y="-42.4" font-family="sans-serif" font-weight="bold" font-size="14.00" fill="#000000">Legend</text>
<polygon fill="#ffffb3" stroke="transparent" points="14,-10 14,-30 34,-30 34,-10 14,-10"/>
<text text-anchor="start" x="37.629" y="-15.4" font-family="sans-serif" font-size="14.00" fill="#000000"> &#160;Declarations</text>
<polygon fill="#8dd3c7" stroke="transparent" points="127,-10 127,-30 147,-30 147,-10 127,-10"/>
<text text-anchor="start" x="150.7251" y="-15.4" font-family="sans-serif" font-size="14.00" fill="#000000"> &#160;Module</text>
<polygon fill="#80b1d3" stroke="transparent" points="213,-10 213,-30 233,-30 233,-10 213,-10"/>
<text text-anchor="start" x="236.7812" y="-15.4" font-family="sans-serif" font-size="14.00" fill="#000000"> &#160;Bootstrap</text>
<polygon fill="#fdb462" stroke="transparent" points="310,-10 310,-30 330,-30 330,-10 310,-10"/>
<text text-anchor="start" x="333.6732" y="-15.4" font-family="sans-serif" font-size="14.00" fill="#000000"> &#160;Providers</text>
<polygon fill="#fb8072" stroke="transparent" points="406,-10 406,-30 426,-30 426,-10 406,-10"/>
<text text-anchor="start" x="429.7258" y="-15.4" font-family="sans-serif" font-size="14.00" fill="#000000"> &#160;Exports</text>
<g id="clust1" class="cluster">
<title>cluster_MinicalModule</title>
<polygon fill="none" stroke="#000000" stroke-dasharray="1,5" points="44,-70 44,-333 452,-333 452,-70 44,-70"/>
</g>
<g id="clust2" class="cluster">
<title>cluster_MinicalModule_declarations</title>
<polygon fill="none" stroke="#000000" points="59,-143 59,-195 439,-195 439,-143 59,-143"/>
</g>
<g id="clust5" class="cluster">
<title>cluster_MinicalModule_MinicalComponent_providers</title>
<polygon fill="none" stroke="#000000" points="52,-78 52,-130 208,-130 208,-78 52,-78"/>
</g>
<g id="clust7" class="cluster">
<title>cluster_MinicalModule_exports</title>
<polygon fill="none" stroke="#000000" points="52,-273 52,-325 444,-325 444,-273 52,-273"/>
</g>
<!-- EventDirective -->
<g id="node1" class="node">
<title>EventDirective</title>
<polygon fill="#ffffb3" stroke="#000000" points="431.2409,-187 330.7591,-187 330.7591,-151 431.2409,-151 431.2409,-187"/>
<text text-anchor="middle" x="381" y="-164.8" font-family="Times,serif" font-size="14.00" fill="#000000">EventDirective</text>
</g>
<!-- MinicalModule -->
<g id="node4" class="node">
<title>MinicalModule</title>
<polygon fill="#8dd3c7" stroke="#000000" points="311.5954,-252 308.5954,-256 287.5954,-256 284.5954,-252 208.4046,-252 208.4046,-216 311.5954,-216 311.5954,-252"/>
<text text-anchor="middle" x="260" y="-229.8" font-family="Times,serif" font-size="14.00" fill="#000000">MinicalModule</text>
</g>
<!-- EventDirective&#45;&gt;MinicalModule -->
<g id="edge1" class="edge">
<title>EventDirective&#45;&gt;MinicalModule</title>
<path fill="none" stroke="#000000" d="M398.2068,-187.0225C398.2068,-204.3734 398.2068,-228 398.2068,-228 398.2068,-228 321.8563,-228 321.8563,-228"/>
<polygon fill="#000000" stroke="#000000" points="321.8563,-224.5001 311.8563,-228 321.8563,-231.5001 321.8563,-224.5001"/>
</g>
<!-- GroupDirective -->
<g id="node2" class="node">
<title>GroupDirective</title>
<polygon fill="#ffffb3" stroke="#000000" points="312.8501,-187 209.1499,-187 209.1499,-151 312.8501,-151 312.8501,-187"/>
<text text-anchor="middle" x="261" y="-164.8" font-family="Times,serif" font-size="14.00" fill="#000000">GroupDirective</text>
</g>
<!-- GroupDirective&#45;&gt;MinicalModule -->
<g id="edge2" class="edge">
<title>GroupDirective&#45;&gt;MinicalModule</title>
<path fill="none" stroke="#000000" d="M260.3114,-187.1061C260.3114,-187.1061 260.3114,-205.991 260.3114,-205.991"/>
<polygon fill="#000000" stroke="#000000" points="256.8114,-205.9909 260.3114,-215.991 263.8114,-205.991 256.8114,-205.9909"/>
</g>
<!-- MinicalComponent -->
<g id="node3" class="node">
<title>MinicalComponent</title>
<polygon fill="#ffffb3" stroke="#000000" points="191.3781,-187 66.6219,-187 66.6219,-151 191.3781,-151 191.3781,-187"/>
<text text-anchor="middle" x="129" y="-164.8" font-family="Times,serif" font-size="14.00" fill="#000000">MinicalComponent</text>
</g>
<!-- MinicalComponent&#45;&gt;MinicalModule -->
<g id="edge3" class="edge">
<title>MinicalComponent&#45;&gt;MinicalModule</title>
<path fill="none" stroke="#000000" d="M147.6463,-187.0225C147.6463,-204.3734 147.6463,-228 147.6463,-228 147.6463,-228 198.4268,-228 198.4268,-228"/>
<polygon fill="#000000" stroke="#000000" points="198.4269,-231.5001 208.4268,-228 198.4268,-224.5001 198.4269,-231.5001"/>
</g>
<!-- EventDirective  -->
<g id="node6" class="node">
<title>EventDirective </title>
<polygon fill="#fb8072" stroke="#000000" points="436.2409,-317 331.7591,-317 331.7591,-281 436.2409,-281 436.2409,-317"/>
<text text-anchor="middle" x="384" y="-294.8" font-family="Times,serif" font-size="14.00" fill="#000000">EventDirective </text>
</g>
<!-- MinicalModule&#45;&gt;EventDirective  -->
<g id="edge5" class="edge">
<title>MinicalModule&#45;&gt;EventDirective </title>
<path fill="none" stroke="#000000" stroke-dasharray="5,2" d="M311.5984,-240C338.1633,-240 365.0432,-240 365.0432,-240 365.0432,-240 365.0432,-270.9775 365.0432,-270.9775"/>
<polygon fill="#000000" stroke="#000000" points="361.5433,-270.9774 365.0432,-280.9775 368.5433,-270.9775 361.5433,-270.9774"/>
</g>
<!-- GroupDirective  -->
<g id="node7" class="node">
<title>GroupDirective </title>
<polygon fill="#fb8072" stroke="#000000" points="313.8506,-317 206.1494,-317 206.1494,-281 313.8506,-281 313.8506,-317"/>
<text text-anchor="middle" x="260" y="-294.8" font-family="Times,serif" font-size="14.00" fill="#000000">GroupDirective </text>
</g>
<!-- MinicalModule&#45;&gt;GroupDirective  -->
<g id="edge6" class="edge">
<title>MinicalModule&#45;&gt;GroupDirective </title>
<path fill="none" stroke="#000000" stroke-dasharray="5,2" d="M260,-252.1061C260,-252.1061 260,-270.991 260,-270.991"/>
<polygon fill="#000000" stroke="#000000" points="256.5001,-270.9909 260,-280.991 263.5001,-270.991 256.5001,-270.9909"/>
</g>
<!-- MinicalComponent  -->
<g id="node8" class="node">
<title>MinicalComponent </title>
<polygon fill="#fb8072" stroke="#000000" points="188.3786,-317 59.6214,-317 59.6214,-281 188.3786,-281 188.3786,-317"/>
<text text-anchor="middle" x="124" y="-294.8" font-family="Times,serif" font-size="14.00" fill="#000000">MinicalComponent </text>
</g>
<!-- MinicalModule&#45;&gt;MinicalComponent  -->
<g id="edge7" class="edge">
<title>MinicalModule&#45;&gt;MinicalComponent </title>
<path fill="none" stroke="#000000" stroke-dasharray="5,2" d="M208.2363,-240C163.8799,-240 107.1037,-240 107.1037,-240 107.1037,-240 107.1037,-270.9775 107.1037,-270.9775"/>
<polygon fill="#000000" stroke="#000000" points="103.6038,-270.9774 107.1037,-280.9775 110.6038,-270.9775 103.6038,-270.9774"/>
</g>
<!-- MinicalService -->
<g id="node5" class="node">
<title>MinicalService</title>
<ellipse fill="#fdb462" stroke="#000000" cx="130" cy="-104" rx="70.0577" ry="18"/>
<text text-anchor="middle" x="130" y="-99.8" font-family="Times,serif" font-size="14.00" fill="#000000">MinicalService</text>
</g>
<!-- MinicalService&#45;&gt;MinicalComponent -->
<g id="edge4" class="edge">
<title>MinicalService&#45;&gt;MinicalComponent</title>
<path fill="none" stroke="#000000" d="M129,-122.1061C129,-122.1061 129,-140.991 129,-140.991"/>
<polygon fill="#000000" stroke="#000000" points="125.5001,-140.9909 129,-150.991 132.5001,-140.991 125.5001,-140.9909"/>
</g>
</g>
</svg>
