<?xml version="1.0" encoding="UTF-8" standalone="no"?>
<!DOCTYPE svg PUBLIC "-//W3C//DTD SVG 1.1//EN"
 "http://www.w3.org/Graphics/SVG/1.1/DTD/svg11.dtd">
<!-- Generated by graphviz version 2.40.1 (20161225.0304)
 -->
<!-- Title: dependencies Pages: 1 -->
<svg width="1908pt" height="284pt"
 viewBox="0.00 0.00 1908.00 284.00" xmlns="http://www.w3.org/2000/svg" xmlns:xlink="http://www.w3.org/1999/xlink">
<g id="graph0" class="graph" transform="scale(1 1) rotate(0) translate(4 280)">
<title>dependencies</title>
<polygon fill="#ffffff" stroke="transparent" points="-4,4 -4,-280 1904,-280 1904,4 -4,4"/>
<text text-anchor="start" x="929.0091" y="-42.4" font-family="sans-serif" font-weight="bold" font-size="14.00" fill="#000000">Legend</text>
<polygon fill="#ffffb3" stroke="transparent" points="716,-10 716,-30 736,-30 736,-10 716,-10"/>
<text text-anchor="start" x="739.629" y="-15.4" font-family="sans-serif" font-size="14.00" fill="#000000"> &#160;Declarations</text>
<polygon fill="#8dd3c7" stroke="transparent" points="829,-10 829,-30 849,-30 849,-10 829,-10"/>
<text text-anchor="start" x="852.7251" y="-15.4" font-family="sans-serif" font-size="14.00" fill="#000000"> &#160;Module</text>
<polygon fill="#80b1d3" stroke="transparent" points="915,-10 915,-30 935,-30 935,-10 915,-10"/>
<text text-anchor="start" x="938.7812" y="-15.4" font-family="sans-serif" font-size="14.00" fill="#000000"> &#160;Bootstrap</text>
<polygon fill="#fdb462" stroke="transparent" points="1012,-10 1012,-30 1032,-30 1032,-10 1012,-10"/>
<text text-anchor="start" x="1035.6732" y="-15.4" font-family="sans-serif" font-size="14.00" fill="#000000"> &#160;Providers</text>
<polygon fill="#fb8072" stroke="transparent" points="1108,-10 1108,-30 1128,-30 1128,-10 1108,-10"/>
<text text-anchor="start" x="1131.7258" y="-15.4" font-family="sans-serif" font-size="14.00" fill="#000000"> &#160;Exports</text>
<g id="clust1" class="cluster">
<title>cluster_FormValidationModule</title>
<polygon fill="none" stroke="#000000" stroke-dasharray="1,5" points="8,-70 8,-268 1892,-268 1892,-70 8,-70"/>
</g>
<g id="clust2" class="cluster">
<title>cluster_FormValidationModule_declarations</title>
<polygon fill="none" stroke="#000000" points="31,-78 31,-130 1869,-130 1869,-78 31,-78"/>
</g>
<g id="clust13" class="cluster">
<title>cluster_FormValidationModule_exports</title>
<polygon fill="none" stroke="#000000" points="16,-208 16,-260 1884,-260 1884,-208 16,-208"/>
</g>
<!-- EmailValidationErrorComponent -->
<g id="node1" class="node">
<title>EmailValidationErrorComponent</title>
<polygon fill="#ffffb3" stroke="#000000" points="1860.9044,-122 1657.0956,-122 1657.0956,-86 1860.9044,-86 1860.9044,-122"/>
<text text-anchor="middle" x="1759" y="-99.8" font-family="Times,serif" font-size="14.00" fill="#000000">EmailValidationErrorComponent</text>
</g>
<!-- FormValidationModule -->
<g id="node10" class="node">
<title>FormValidationModule</title>
<polygon fill="#8dd3c7" stroke="#000000" points="984.4818,-187 981.4818,-191 960.4818,-191 957.4818,-187 835.5182,-187 835.5182,-151 984.4818,-151 984.4818,-187"/>
<text text-anchor="middle" x="910" y="-164.8" font-family="Times,serif" font-size="14.00" fill="#000000">FormValidationModule</text>
</g>
<!-- EmailValidationErrorComponent&#45;&gt;FormValidationModule -->
<g id="edge1" class="edge">
<title>EmailValidationErrorComponent&#45;&gt;FormValidationModule</title>
<path fill="none" stroke="#000000" d="M1663.423,-122.2222C1663.423,-140.8285 1663.423,-167 1663.423,-167 1663.423,-167 994.649,-167 994.649,-167"/>
<polygon fill="#000000" stroke="#000000" points="994.649,-163.5001 984.649,-167 994.6489,-170.5001 994.649,-163.5001"/>
</g>
<!-- EmailValidator -->
<g id="node2" class="node">
<title>EmailValidator</title>
<polygon fill="#ffffb3" stroke="#000000" points="1639.3077,-122 1536.6923,-122 1536.6923,-86 1639.3077,-86 1639.3077,-122"/>
<text text-anchor="middle" x="1588" y="-99.8" font-family="Times,serif" font-size="14.00" fill="#000000">EmailValidator</text>
</g>
<!-- EmailValidator&#45;&gt;FormValidationModule -->
<g id="edge2" class="edge">
<title>EmailValidator&#45;&gt;FormValidationModule</title>
<path fill="none" stroke="#000000" d="M1541.4714,-122.0225C1541.4714,-139.3734 1541.4714,-163 1541.4714,-163 1541.4714,-163 994.606,-163 994.606,-163"/>
<polygon fill="#000000" stroke="#000000" points="994.606,-159.5001 984.606,-163 994.606,-166.5001 994.606,-159.5001"/>
</g>
<!-- MaxLengthValidationErrorComponent -->
<g id="node3" class="node">
<title>MaxLengthValidationErrorComponent</title>
<polygon fill="#ffffb3" stroke="#000000" points="1518.7822,-122 1283.2178,-122 1283.2178,-86 1518.7822,-86 1518.7822,-122"/>
<text text-anchor="middle" x="1401" y="-99.8" font-family="Times,serif" font-size="14.00" fill="#000000">MaxLengthValidationErrorComponent</text>
</g>
<!-- MaxLengthValidationErrorComponent&#45;&gt;FormValidationModule -->
<g id="edge3" class="edge">
<title>MaxLengthValidationErrorComponent&#45;&gt;FormValidationModule</title>
<path fill="none" stroke="#000000" d="M1442.297,-122.0091C1442.297,-138.0494 1442.297,-159 1442.297,-159 1442.297,-159 994.5741,-159 994.5741,-159"/>
<polygon fill="#000000" stroke="#000000" points="994.5741,-155.5001 984.5741,-159 994.5741,-162.5001 994.5741,-155.5001"/>
</g>
<!-- MinLengthValidationErrorComponent -->
<g id="node4" class="node">
<title>MinLengthValidationErrorComponent</title>
<polygon fill="#ffffb3" stroke="#000000" points="1265.458,-122 1032.542,-122 1032.542,-86 1265.458,-86 1265.458,-122"/>
<text text-anchor="middle" x="1149" y="-99.8" font-family="Times,serif" font-size="14.00" fill="#000000">MinLengthValidationErrorComponent</text>
</g>
<!-- MinLengthValidationErrorComponent&#45;&gt;FormValidationModule -->
<g id="edge4" class="edge">
<title>MinLengthValidationErrorComponent&#45;&gt;FormValidationModule</title>
<path fill="none" stroke="#000000" d="M1188.5763,-122.1243C1188.5763,-136.7832 1188.5763,-155 1188.5763,-155 1188.5763,-155 994.6533,-155 994.6533,-155"/>
<polygon fill="#000000" stroke="#000000" points="994.6534,-151.5001 984.6533,-155 994.6533,-158.5001 994.6534,-151.5001"/>
</g>
<!-- PatternValidationErrorComponent -->
<g id="node5" class="node">
<title>PatternValidationErrorComponent</title>
<polygon fill="#ffffb3" stroke="#000000" points="1014.6189,-122 805.3811,-122 805.3811,-86 1014.6189,-86 1014.6189,-122"/>
<text text-anchor="middle" x="910" y="-99.8" font-family="Times,serif" font-size="14.00" fill="#000000">PatternValidationErrorComponent</text>
</g>
<!-- PatternValidationErrorComponent&#45;&gt;FormValidationModule -->
<g id="edge5" class="edge">
<title>PatternValidationErrorComponent&#45;&gt;FormValidationModule</title>
<path fill="none" stroke="#000000" d="M910,-122.1061C910,-122.1061 910,-140.991 910,-140.991"/>
<polygon fill="#000000" stroke="#000000" points="906.5001,-140.9909 910,-150.991 913.5001,-140.991 906.5001,-140.9909"/>
</g>
<!-- RequiredValidationErrorComponent -->
<g id="node6" class="node">
<title>RequiredValidationErrorComponent</title>
<polygon fill="#ffffb3" stroke="#000000" points="787.7822,-122 566.2178,-122 566.2178,-86 787.7822,-86 787.7822,-122"/>
<text text-anchor="middle" x="677" y="-99.8" font-family="Times,serif" font-size="14.00" fill="#000000">RequiredValidationErrorComponent</text>
</g>
<!-- RequiredValidationErrorComponent&#45;&gt;FormValidationModule -->
<g id="edge6" class="edge">
<title>RequiredValidationErrorComponent&#45;&gt;FormValidationModule</title>
<path fill="none" stroke="#000000" d="M712.3803,-122.1243C712.3803,-136.7832 712.3803,-155 712.3803,-155 712.3803,-155 825.2885,-155 825.2885,-155"/>
<polygon fill="#000000" stroke="#000000" points="825.2885,-158.5001 835.2885,-155 825.2884,-151.5001 825.2885,-158.5001"/>
</g>
<!-- TimeValidationErrorComponent -->
<g id="node7" class="node">
<title>TimeValidationErrorComponent</title>
<polygon fill="#ffffb3" stroke="#000000" points="548.514,-122 349.486,-122 349.486,-86 548.514,-86 548.514,-122"/>
<text text-anchor="middle" x="449" y="-99.8" font-family="Times,serif" font-size="14.00" fill="#000000">TimeValidationErrorComponent</text>
</g>
<!-- TimeValidationErrorComponent&#45;&gt;FormValidationModule -->
<g id="edge7" class="edge">
<title>TimeValidationErrorComponent&#45;&gt;FormValidationModule</title>
<path fill="none" stroke="#000000" d="M478.0856,-122.0091C478.0856,-138.0494 478.0856,-159 478.0856,-159 478.0856,-159 825.2593,-159 825.2593,-159"/>
<polygon fill="#000000" stroke="#000000" points="825.2594,-162.5001 835.2593,-159 825.2593,-155.5001 825.2594,-162.5001"/>
</g>
<!-- TimeValidator -->
<g id="node8" class="node">
<title>TimeValidator</title>
<polygon fill="#ffffb3" stroke="#000000" points="331.4175,-122 232.5825,-122 232.5825,-86 331.4175,-86 331.4175,-122"/>
<text text-anchor="middle" x="282" y="-99.8" font-family="Times,serif" font-size="14.00" fill="#000000">TimeValidator</text>
</g>
<!-- TimeValidator&#45;&gt;FormValidationModule -->
<g id="edge8" class="edge">
<title>TimeValidator&#45;&gt;FormValidationModule</title>
<path fill="none" stroke="#000000" d="M326.5833,-122.0225C326.5833,-139.3734 326.5833,-163 326.5833,-163 326.5833,-163 825.5173,-163 825.5173,-163"/>
<polygon fill="#000000" stroke="#000000" points="825.5173,-166.5001 835.5173,-163 825.5172,-159.5001 825.5173,-166.5001"/>
</g>
<!-- ValidationErrorsComponent -->
<g id="node9" class="node">
<title>ValidationErrorsComponent</title>
<polygon fill="#ffffb3" stroke="#000000" points="214.9101,-122 39.0899,-122 39.0899,-86 214.9101,-86 214.9101,-122"/>
<text text-anchor="middle" x="127" y="-99.8" font-family="Times,serif" font-size="14.00" fill="#000000">ValidationErrorsComponent</text>
</g>
<!-- ValidationErrorsComponent&#45;&gt;FormValidationModule -->
<g id="edge9" class="edge">
<title>ValidationErrorsComponent&#45;&gt;FormValidationModule</title>
<path fill="none" stroke="#000000" d="M208.5798,-122.2222C208.5798,-140.8285 208.5798,-167 208.5798,-167 208.5798,-167 825.2681,-167 825.2681,-167"/>
<polygon fill="#000000" stroke="#000000" points="825.2681,-170.5001 835.2681,-167 825.268,-163.5001 825.2681,-170.5001"/>
</g>
<!-- EmailValidationErrorComponent  -->
<g id="node11" class="node">
<title>EmailValidationErrorComponent </title>
<polygon fill="#fb8072" stroke="#000000" points="1876.404,-252 1669.596,-252 1669.596,-216 1876.404,-216 1876.404,-252"/>
<text text-anchor="middle" x="1773" y="-229.8" font-family="Times,serif" font-size="14.00" fill="#000000">EmailValidationErrorComponent </text>
</g>
<!-- FormValidationModule&#45;&gt;EmailValidationErrorComponent  -->
<g id="edge10" class="edge">
<title>FormValidationModule&#45;&gt;EmailValidationErrorComponent </title>
<path fill="none" stroke="#000000" stroke-dasharray="5,2" d="M984.7636,-171C1193.1207,-171 1765.125,-171 1765.125,-171 1765.125,-171 1765.125,-205.7778 1765.125,-205.7778"/>
<polygon fill="#000000" stroke="#000000" points="1761.6251,-205.7778 1765.125,-215.7778 1768.6251,-205.7778 1761.6251,-205.7778"/>
</g>
<!-- EmailValidator  -->
<g id="node12" class="node">
<title>EmailValidator </title>
<polygon fill="#fb8072" stroke="#000000" points="1651.8074,-252 1546.1926,-252 1546.1926,-216 1651.8074,-216 1651.8074,-252"/>
<text text-anchor="middle" x="1599" y="-229.8" font-family="Times,serif" font-size="14.00" fill="#000000">EmailValidator </text>
</g>
<!-- FormValidationModule&#45;&gt;EmailValidator  -->
<g id="edge11" class="edge">
<title>FormValidationModule&#45;&gt;EmailValidator </title>
<path fill="none" stroke="#000000" stroke-dasharray="5,2" d="M984.6786,-175C1161.8035,-175 1592.625,-175 1592.625,-175 1592.625,-175 1592.625,-205.9775 1592.625,-205.9775"/>
<polygon fill="#000000" stroke="#000000" points="1589.1251,-205.9774 1592.625,-215.9775 1596.1251,-205.9775 1589.1251,-205.9774"/>
</g>
<!-- MaxLengthValidationErrorComponent  -->
<g id="node13" class="node">
<title>MaxLengthValidationErrorComponent </title>
<polygon fill="#fb8072" stroke="#000000" points="1528.2821,-252 1289.7179,-252 1289.7179,-216 1528.2821,-216 1528.2821,-252"/>
<text text-anchor="middle" x="1409" y="-229.8" font-family="Times,serif" font-size="14.00" fill="#000000">MaxLengthValidationErrorComponent </text>
</g>
<!-- FormValidationModule&#45;&gt;MaxLengthValidationErrorComponent  -->
<g id="edge12" class="edge">
<title>FormValidationModule&#45;&gt;MaxLengthValidationErrorComponent </title>
<path fill="none" stroke="#000000" stroke-dasharray="5,2" d="M984.526,-179C1113.8024,-179 1365.953,-179 1365.953,-179 1365.953,-179 1365.953,-205.9909 1365.953,-205.9909"/>
<polygon fill="#000000" stroke="#000000" points="1362.4531,-205.9909 1365.953,-215.9909 1369.4531,-205.991 1362.4531,-205.9909"/>
</g>
<!-- MinLengthValidationErrorComponent  -->
<g id="node14" class="node">
<title>MinLengthValidationErrorComponent </title>
<polygon fill="#fb8072" stroke="#000000" points="1271.4584,-252 1034.5416,-252 1034.5416,-216 1271.4584,-216 1271.4584,-252"/>
<text text-anchor="middle" x="1153" y="-229.8" font-family="Times,serif" font-size="14.00" fill="#000000">MinLengthValidationErrorComponent </text>
</g>
<!-- FormValidationModule&#45;&gt;MinLengthValidationErrorComponent  -->
<g id="edge13" class="edge">
<title>FormValidationModule&#45;&gt;MinLengthValidationErrorComponent </title>
<path fill="none" stroke="#000000" stroke-dasharray="5,2" d="M984.5228,-183C1041.9721,-183 1111.6737,-183 1111.6737,-183 1111.6737,-183 1111.6737,-205.8757 1111.6737,-205.8757"/>
<polygon fill="#000000" stroke="#000000" points="1108.1738,-205.8757 1111.6737,-215.8757 1115.1738,-205.8757 1108.1738,-205.8757"/>
</g>
<!-- PatternValidationErrorComponent  -->
<g id="node15" class="node">
<title>PatternValidationErrorComponent </title>
<polygon fill="#fb8072" stroke="#000000" points="1016.6186,-252 803.3814,-252 803.3814,-216 1016.6186,-216 1016.6186,-252"/>
<text text-anchor="middle" x="910" y="-229.8" font-family="Times,serif" font-size="14.00" fill="#000000">PatternValidationErrorComponent </text>
</g>
<!-- FormValidationModule&#45;&gt;PatternValidationErrorComponent  -->
<g id="edge14" class="edge">
<title>FormValidationModule&#45;&gt;PatternValidationErrorComponent </title>
<path fill="none" stroke="#000000" stroke-dasharray="5,2" d="M910,-187.1061C910,-187.1061 910,-205.991 910,-205.991"/>
<polygon fill="#000000" stroke="#000000" points="906.5001,-205.9909 910,-215.991 913.5001,-205.991 906.5001,-205.9909"/>
</g>
<!-- RequiredValidationErrorComponent  -->
<g id="node16" class="node">
<title>RequiredValidationErrorComponent </title>
<polygon fill="#fb8072" stroke="#000000" points="785.2821,-252 560.7179,-252 560.7179,-216 785.2821,-216 785.2821,-252"/>
<text text-anchor="middle" x="673" y="-229.8" font-family="Times,serif" font-size="14.00" fill="#000000">RequiredValidationErrorComponent </text>
</g>
<!-- FormValidationModule&#45;&gt;RequiredValidationErrorComponent  -->
<g id="edge15" class="edge">
<title>FormValidationModule&#45;&gt;RequiredValidationErrorComponent </title>
<path fill="none" stroke="#000000" stroke-dasharray="5,2" d="M835.3327,-183C755.2277,-183 639.3697,-183 639.3697,-183 639.3697,-183 639.3697,-205.8757 639.3697,-205.8757"/>
<polygon fill="#000000" stroke="#000000" points="635.8698,-205.8757 639.3697,-215.8757 642.8698,-205.8757 635.8698,-205.8757"/>
</g>
<!-- TimeValidationErrorComponent  -->
<g id="node17" class="node">
<title>TimeValidationErrorComponent </title>
<polygon fill="#fb8072" stroke="#000000" points="542.5134,-252 339.4866,-252 339.4866,-216 542.5134,-216 542.5134,-252"/>
<text text-anchor="middle" x="441" y="-229.8" font-family="Times,serif" font-size="14.00" fill="#000000">TimeValidationErrorComponent </text>
</g>
<!-- FormValidationModule&#45;&gt;TimeValidationErrorComponent  -->
<g id="edge16" class="edge">
<title>FormValidationModule&#45;&gt;TimeValidationErrorComponent </title>
<path fill="none" stroke="#000000" stroke-dasharray="5,2" d="M835.425,-179C696.8663,-179 413.6644,-179 413.6644,-179 413.6644,-179 413.6644,-205.9909 413.6644,-205.9909"/>
<polygon fill="#000000" stroke="#000000" points="410.1645,-205.9909 413.6644,-215.9909 417.1645,-205.991 410.1645,-205.9909"/>
</g>
<!-- TimeValidator  -->
<g id="node18" class="node">
<title>TimeValidator </title>
<polygon fill="#fb8072" stroke="#000000" points="321.9166,-252 220.0834,-252 220.0834,-216 321.9166,-216 321.9166,-252"/>
<text text-anchor="middle" x="271" y="-229.8" font-family="Times,serif" font-size="14.00" fill="#000000">TimeValidator </text>
</g>
<!-- FormValidationModule&#45;&gt;TimeValidator  -->
<g id="edge17" class="edge">
<title>FormValidationModule&#45;&gt;TimeValidator </title>
<path fill="none" stroke="#000000" stroke-dasharray="5,2" d="M835.2577,-175C667.8548,-175 277.375,-175 277.375,-175 277.375,-175 277.375,-205.9775 277.375,-205.9775"/>
<polygon fill="#000000" stroke="#000000" points="273.8751,-205.9774 277.375,-215.9775 280.8751,-205.9775 273.8751,-205.9774"/>
</g>
<!-- ValidationErrorsComponent  -->
<g id="node19" class="node">
<title>ValidationErrorsComponent </title>
<polygon fill="#fb8072" stroke="#000000" points="202.4096,-252 23.5904,-252 23.5904,-216 202.4096,-216 202.4096,-252"/>
<text text-anchor="middle" x="113" y="-229.8" font-family="Times,serif" font-size="14.00" fill="#000000">ValidationErrorsComponent </text>
</g>
<!-- FormValidationModule&#45;&gt;ValidationErrorsComponent  -->
<g id="edge18" class="edge">
<title>FormValidationModule&#45;&gt;ValidationErrorsComponent </title>
<path fill="none" stroke="#000000" stroke-dasharray="5,2" d="M835.4057,-171C638.6948,-171 120.875,-171 120.875,-171 120.875,-171 120.875,-205.7778 120.875,-205.7778"/>
<polygon fill="#000000" stroke="#000000" points="117.3751,-205.7778 120.875,-215.7778 124.3751,-205.7778 117.3751,-205.7778"/>
</g>
</g>
</svg>
