<?xml version="1.0" encoding="UTF-8" standalone="no"?>
<!DOCTYPE svg PUBLIC "-//W3C//DTD SVG 1.1//EN"
 "http://www.w3.org/Graphics/SVG/1.1/DTD/svg11.dtd">
<!-- Generated by graphviz version 2.40.1 (20161225.0304)
 -->
<!-- Title: dependencies Pages: 1 -->
<svg width="1517pt" height="211pt"
 viewBox="0.00 0.00 1517.00 211.00" xmlns="http://www.w3.org/2000/svg" xmlns:xlink="http://www.w3.org/1999/xlink">
<g id="graph0" class="graph" transform="scale(1 1) rotate(0) translate(4 207)">
<title>dependencies</title>
<polygon fill="#ffffff" stroke="transparent" points="-4,4 -4,-207 1513,-207 1513,4 -4,4"/>
<text text-anchor="start" x="733.5091" y="-42.4" font-family="sans-serif" font-weight="bold" font-size="14.00" fill="#000000">Legend</text>
<polygon fill="#ffffb3" stroke="transparent" points="520.5,-10 520.5,-30 540.5,-30 540.5,-10 520.5,-10"/>
<text text-anchor="start" x="544.129" y="-15.4" font-family="sans-serif" font-size="14.00" fill="#000000"> &#160;Declarations</text>
<polygon fill="#8dd3c7" stroke="transparent" points="633.5,-10 633.5,-30 653.5,-30 653.5,-10 633.5,-10"/>
<text text-anchor="start" x="657.2251" y="-15.4" font-family="sans-serif" font-size="14.00" fill="#000000"> &#160;Module</text>
<polygon fill="#80b1d3" stroke="transparent" points="719.5,-10 719.5,-30 739.5,-30 739.5,-10 719.5,-10"/>
<text text-anchor="start" x="743.2812" y="-15.4" font-family="sans-serif" font-size="14.00" fill="#000000"> &#160;Bootstrap</text>
<polygon fill="#fdb462" stroke="transparent" points="816.5,-10 816.5,-30 836.5,-30 836.5,-10 816.5,-10"/>
<text text-anchor="start" x="840.1732" y="-15.4" font-family="sans-serif" font-size="14.00" fill="#000000"> &#160;Providers</text>
<polygon fill="#fb8072" stroke="transparent" points="912.5,-10 912.5,-30 932.5,-30 932.5,-10 912.5,-10"/>
<text text-anchor="start" x="936.2258" y="-15.4" font-family="sans-serif" font-size="14.00" fill="#000000"> &#160;Exports</text>
<g id="clust1" class="cluster">
<title>cluster_AccountModule</title>
<polygon fill="none" stroke="#000000" stroke-dasharray="1,5" points="8,-70 8,-195 1501,-195 1501,-70 8,-70"/>
</g>
<g id="clust2" class="cluster">
<title>cluster_AccountModule_declarations</title>
<polygon fill="none" stroke="#000000" points="478,-78 478,-130 1493,-130 1493,-78 478,-78"/>
</g>
<g id="clust9" class="cluster">
<title>cluster_AccountModule_imports</title>
<polygon fill="none" stroke="#000000" points="186,-78 186,-130 470,-130 470,-78 186,-78"/>
</g>
<g id="clust12" class="cluster">
<title>cluster_AccountModule_providers</title>
<polygon fill="none" stroke="#000000" points="16,-78 16,-130 178,-130 178,-78 16,-78"/>
</g>
<!-- ExternalLoginCallbackComponent -->
<g id="node1" class="node">
<title>ExternalLoginCallbackComponent</title>
<polygon fill="#ffffb3" stroke="#000000" points="1484.9608,-122 1273.0392,-122 1273.0392,-86 1484.9608,-86 1484.9608,-122"/>
<text text-anchor="middle" x="1379" y="-99.8" font-family="Times,serif" font-size="14.00" fill="#000000">ExternalLoginCallbackComponent</text>
</g>
<!-- AccountModule -->
<g id="node7" class="node">
<title>AccountModule</title>
<polygon fill="#8dd3c7" stroke="#000000" points="786.4762,-187 783.4762,-191 762.4762,-191 759.4762,-187 679.5238,-187 679.5238,-151 786.4762,-151 786.4762,-187"/>
<text text-anchor="middle" x="733" y="-164.8" font-family="Times,serif" font-size="14.00" fill="#000000">AccountModule</text>
</g>
<!-- ExternalLoginCallbackComponent&#45;&gt;AccountModule -->
<g id="edge1" class="edge">
<title>ExternalLoginCallbackComponent&#45;&gt;AccountModule</title>
<path fill="none" stroke="#000000" d="M1379,-122.0109C1379,-144.4852 1379,-180 1379,-180 1379,-180 796.6902,-180 796.6902,-180"/>
<polygon fill="#000000" stroke="#000000" points="796.6902,-176.5001 786.6902,-180 796.6902,-183.5001 796.6902,-176.5001"/>
</g>
<!-- LoginComponent -->
<g id="node2" class="node">
<title>LoginComponent</title>
<polygon fill="#ffffb3" stroke="#000000" points="1255.2758,-122 1140.7242,-122 1140.7242,-86 1255.2758,-86 1255.2758,-122"/>
<text text-anchor="middle" x="1198" y="-99.8" font-family="Times,serif" font-size="14.00" fill="#000000">LoginComponent</text>
</g>
<!-- LoginComponent&#45;&gt;AccountModule -->
<g id="edge2" class="edge">
<title>LoginComponent&#45;&gt;AccountModule</title>
<path fill="none" stroke="#000000" d="M1198,-122.1289C1198,-142.5724 1198,-173 1198,-173 1198,-173 796.7957,-173 796.7957,-173"/>
<polygon fill="#000000" stroke="#000000" points="796.7957,-169.5001 786.7957,-173 796.7956,-176.5001 796.7957,-169.5001"/>
</g>
<!-- PassResetComponent -->
<g id="node3" class="node">
<title>PassResetComponent</title>
<polygon fill="#ffffb3" stroke="#000000" points="1122.8202,-122 985.1798,-122 985.1798,-86 1122.8202,-86 1122.8202,-122"/>
<text text-anchor="middle" x="1054" y="-99.8" font-family="Times,serif" font-size="14.00" fill="#000000">PassResetComponent</text>
</g>
<!-- PassResetComponent&#45;&gt;AccountModule -->
<g id="edge3" class="edge">
<title>PassResetComponent&#45;&gt;AccountModule</title>
<path fill="none" stroke="#000000" d="M1054,-122.2667C1054,-140.5552 1054,-166 1054,-166 1054,-166 796.7282,-166 796.7282,-166"/>
<polygon fill="#000000" stroke="#000000" points="796.7282,-162.5001 786.7282,-166 796.7281,-169.5001 796.7282,-162.5001"/>
</g>
<!-- RegisterComponent -->
<g id="node4" class="node">
<title>RegisterComponent</title>
<polygon fill="#ffffb3" stroke="#000000" points="966.9846,-122 839.0154,-122 839.0154,-86 966.9846,-86 966.9846,-122"/>
<text text-anchor="middle" x="903" y="-99.8" font-family="Times,serif" font-size="14.00" fill="#000000">RegisterComponent</text>
</g>
<!-- RegisterComponent&#45;&gt;AccountModule -->
<g id="edge4" class="edge">
<title>RegisterComponent&#45;&gt;AccountModule</title>
<path fill="none" stroke="#000000" d="M903,-122.0091C903,-138.0494 903,-159 903,-159 903,-159 796.7891,-159 796.7891,-159"/>
<polygon fill="#000000" stroke="#000000" points="796.7891,-155.5001 786.7891,-159 796.789,-162.5001 796.7891,-155.5001"/>
</g>
<!-- RegisterExternalComponent -->
<g id="node5" class="node">
<title>RegisterExternalComponent</title>
<polygon fill="#ffffb3" stroke="#000000" points="820.9087,-122 645.0913,-122 645.0913,-86 820.9087,-86 820.9087,-122"/>
<text text-anchor="middle" x="733" y="-99.8" font-family="Times,serif" font-size="14.00" fill="#000000">RegisterExternalComponent</text>
</g>
<!-- RegisterExternalComponent&#45;&gt;AccountModule -->
<g id="edge5" class="edge">
<title>RegisterExternalComponent&#45;&gt;AccountModule</title>
<path fill="none" stroke="#000000" d="M733,-122.1061C733,-122.1061 733,-140.991 733,-140.991"/>
<polygon fill="#000000" stroke="#000000" points="729.5001,-140.9909 733,-150.991 736.5001,-140.991 729.5001,-140.9909"/>
</g>
<!-- ThankYouComponent -->
<g id="node6" class="node">
<title>ThankYouComponent</title>
<polygon fill="#ffffb3" stroke="#000000" points="627.7064,-122 486.2936,-122 486.2936,-86 627.7064,-86 627.7064,-122"/>
<text text-anchor="middle" x="557" y="-99.8" font-family="Times,serif" font-size="14.00" fill="#000000">ThankYouComponent</text>
</g>
<!-- ThankYouComponent&#45;&gt;AccountModule -->
<g id="edge6" class="edge">
<title>ThankYouComponent&#45;&gt;AccountModule</title>
<path fill="none" stroke="#000000" d="M557,-122.0091C557,-138.0494 557,-159 557,-159 557,-159 669.2379,-159 669.2379,-159"/>
<polygon fill="#000000" stroke="#000000" points="669.2379,-162.5001 679.2379,-159 669.2378,-155.5001 669.2379,-162.5001"/>
</g>
<!-- AccountRoutingModule -->
<g id="node8" class="node">
<title>AccountRoutingModule</title>
<polygon fill="#8dd3c7" stroke="#000000" points="462.094,-122 459.094,-126 438.094,-126 435.094,-122 309.906,-122 309.906,-86 462.094,-86 462.094,-122"/>
<text text-anchor="middle" x="386" y="-99.8" font-family="Times,serif" font-size="14.00" fill="#000000">AccountRoutingModule</text>
</g>
<!-- AccountRoutingModule&#45;&gt;AccountModule -->
<g id="edge7" class="edge">
<title>AccountRoutingModule&#45;&gt;AccountModule</title>
<path fill="none" stroke="#000000" d="M386,-122.2667C386,-140.5552 386,-166 386,-166 386,-166 669.162,-166 669.162,-166"/>
<polygon fill="#000000" stroke="#000000" points="669.162,-169.5001 679.162,-166 669.1619,-162.5001 669.162,-169.5001"/>
</g>
<!-- SharedModule -->
<g id="node9" class="node">
<title>SharedModule</title>
<polygon fill="#8dd3c7" stroke="#000000" points="292.4231,-122 289.4231,-126 268.4231,-126 265.4231,-122 193.5769,-122 193.5769,-86 292.4231,-86 292.4231,-122"/>
<text text-anchor="middle" x="243" y="-99.8" font-family="Times,serif" font-size="14.00" fill="#000000">SharedModule</text>
</g>
<!-- SharedModule&#45;&gt;AccountModule -->
<g id="edge8" class="edge">
<title>SharedModule&#45;&gt;AccountModule</title>
<path fill="none" stroke="#000000" d="M243,-122.1289C243,-142.5724 243,-173 243,-173 243,-173 669.1598,-173 669.1598,-173"/>
<polygon fill="#000000" stroke="#000000" points="669.1598,-176.5001 679.1598,-173 669.1597,-169.5001 669.1598,-176.5001"/>
</g>
<!-- AccountService -->
<g id="node10" class="node">
<title>AccountService</title>
<ellipse fill="#fdb462" stroke="#000000" cx="97" cy="-104" rx="72.9121" ry="18"/>
<text text-anchor="middle" x="97" y="-99.8" font-family="Times,serif" font-size="14.00" fill="#000000">AccountService</text>
</g>
<!-- AccountService&#45;&gt;AccountModule -->
<g id="edge9" class="edge">
<title>AccountService&#45;&gt;AccountModule</title>
<path fill="none" stroke="#000000" d="M97,-122.0109C97,-144.4852 97,-180 97,-180 97,-180 669.3231,-180 669.3231,-180"/>
<polygon fill="#000000" stroke="#000000" points="669.3232,-183.5001 679.3231,-180 669.3231,-176.5001 669.3232,-183.5001"/>
</g>
</g>
</svg>
