<?xml version="1.0" encoding="UTF-8" standalone="no"?>
<!DOCTYPE svg PUBLIC "-//W3C//DTD SVG 1.1//EN"
 "http://www.w3.org/Graphics/SVG/1.1/DTD/svg11.dtd">
<!-- Generated by graphviz version 2.40.1 (20161225.0304)
 -->
<!-- Title: dependencies Pages: 1 -->
<svg width="701pt" height="284pt"
 viewBox="0.00 0.00 701.00 284.00" xmlns="http://www.w3.org/2000/svg" xmlns:xlink="http://www.w3.org/1999/xlink">
<g id="graph0" class="graph" transform="scale(1 1) rotate(0) translate(4 280)">
<title>dependencies</title>
<polygon fill="#ffffff" stroke="transparent" points="-4,4 -4,-280 697,-280 697,4 -4,4"/>
<text text-anchor="start" x="325.5091" y="-42.4" font-family="sans-serif" font-weight="bold" font-size="14.00" fill="#000000">Legend</text>
<polygon fill="#ffffb3" stroke="transparent" points="112.5,-10 112.5,-30 132.5,-30 132.5,-10 112.5,-10"/>
<text text-anchor="start" x="136.129" y="-15.4" font-family="sans-serif" font-size="14.00" fill="#000000"> &#160;Declarations</text>
<polygon fill="#8dd3c7" stroke="transparent" points="225.5,-10 225.5,-30 245.5,-30 245.5,-10 225.5,-10"/>
<text text-anchor="start" x="249.2251" y="-15.4" font-family="sans-serif" font-size="14.00" fill="#000000"> &#160;Module</text>
<polygon fill="#80b1d3" stroke="transparent" points="311.5,-10 311.5,-30 331.5,-30 331.5,-10 311.5,-10"/>
<text text-anchor="start" x="335.2812" y="-15.4" font-family="sans-serif" font-size="14.00" fill="#000000"> &#160;Bootstrap</text>
<polygon fill="#fdb462" stroke="transparent" points="408.5,-10 408.5,-30 428.5,-30 428.5,-10 408.5,-10"/>
<text text-anchor="start" x="432.1732" y="-15.4" font-family="sans-serif" font-size="14.00" fill="#000000"> &#160;Providers</text>
<polygon fill="#fb8072" stroke="transparent" points="504.5,-10 504.5,-30 524.5,-30 524.5,-10 504.5,-10"/>
<text text-anchor="start" x="528.2258" y="-15.4" font-family="sans-serif" font-size="14.00" fill="#000000"> &#160;Exports</text>
<g id="clust1" class="cluster">
<title>cluster_AddressModule</title>
<polygon fill="none" stroke="#000000" stroke-dasharray="1,5" points="8,-70 8,-268 685,-268 685,-70 8,-70"/>
</g>
<g id="clust2" class="cluster">
<title>cluster_AddressModule_declarations</title>
<polygon fill="none" stroke="#000000" points="331,-78 331,-130 677,-130 677,-78 331,-78"/>
</g>
<g id="clust5" class="cluster">
<title>cluster_AddressModule_imports</title>
<polygon fill="none" stroke="#000000" points="16,-78 16,-130 323,-130 323,-78 16,-78"/>
</g>
<g id="clust6" class="cluster">
<title>cluster_AddressModule_exports</title>
<polygon fill="none" stroke="#000000" points="150,-208 150,-260 502,-260 502,-208 150,-208"/>
</g>
<!-- AddressComponent -->
<g id="node1" class="node">
<title>AddressComponent</title>
<polygon fill="#ffffb3" stroke="#000000" points="668.7036,-122 541.2964,-122 541.2964,-86 668.7036,-86 668.7036,-122"/>
<text text-anchor="middle" x="605" y="-99.8" font-family="Times,serif" font-size="14.00" fill="#000000">AddressComponent</text>
</g>
<!-- AddressModule -->
<g id="node3" class="node">
<title>AddressModule</title>
<polygon fill="#8dd3c7" stroke="#000000" points="392.9216,-187 389.9216,-191 368.9216,-191 365.9216,-187 287.0784,-187 287.0784,-151 392.9216,-151 392.9216,-187"/>
<text text-anchor="middle" x="340" y="-164.8" font-family="Times,serif" font-size="14.00" fill="#000000">AddressModule</text>
</g>
<!-- AddressComponent&#45;&gt;AddressModule -->
<g id="edge1" class="edge">
<title>AddressComponent&#45;&gt;AddressModule</title>
<path fill="none" stroke="#000000" d="M605,-122.1061C605,-141.3391 605,-169 605,-169 605,-169 402.9898,-169 402.9898,-169"/>
<polygon fill="#000000" stroke="#000000" points="402.9898,-165.5001 392.9898,-169 402.9898,-172.5001 402.9898,-165.5001"/>
</g>
<!-- AddressReadOnlyComponent -->
<g id="node2" class="node">
<title>AddressReadOnlyComponent</title>
<polygon fill="#ffffb3" stroke="#000000" points="522.9664,-122 339.0336,-122 339.0336,-86 522.9664,-86 522.9664,-122"/>
<text text-anchor="middle" x="431" y="-99.8" font-family="Times,serif" font-size="14.00" fill="#000000">AddressReadOnlyComponent</text>
</g>
<!-- AddressReadOnlyComponent&#45;&gt;AddressModule -->
<g id="edge2" class="edge">
<title>AddressReadOnlyComponent&#45;&gt;AddressModule</title>
<path fill="none" stroke="#000000" d="M365.8636,-122.1061C365.8636,-122.1061 365.8636,-140.991 365.8636,-140.991"/>
<polygon fill="#000000" stroke="#000000" points="362.3637,-140.9909 365.8636,-150.991 369.3637,-140.991 362.3637,-140.9909"/>
</g>
<!-- AddressComponent  -->
<g id="node6" class="node">
<title>AddressComponent </title>
<polygon fill="#fb8072" stroke="#000000" points="494.2037,-252 363.7963,-252 363.7963,-216 494.2037,-216 494.2037,-252"/>
<text text-anchor="middle" x="429" y="-229.8" font-family="Times,serif" font-size="14.00" fill="#000000">AddressComponent </text>
</g>
<!-- AddressModule&#45;&gt;AddressComponent  -->
<g id="edge5" class="edge">
<title>AddressModule&#45;&gt;AddressComponent </title>
<path fill="none" stroke="#000000" stroke-dasharray="5,2" d="M378.1794,-187.1061C378.1794,-187.1061 378.1794,-205.991 378.1794,-205.991"/>
<polygon fill="#000000" stroke="#000000" points="374.6794,-205.9909 378.1794,-215.991 381.6794,-205.991 374.6794,-205.9909"/>
</g>
<!-- AddressReadOnlyComponent  -->
<g id="node7" class="node">
<title>AddressReadOnlyComponent </title>
<polygon fill="#fb8072" stroke="#000000" points="345.967,-252 158.033,-252 158.033,-216 345.967,-216 345.967,-252"/>
<text text-anchor="middle" x="252" y="-229.8" font-family="Times,serif" font-size="14.00" fill="#000000">AddressReadOnlyComponent </text>
</g>
<!-- AddressModule&#45;&gt;AddressReadOnlyComponent  -->
<g id="edge6" class="edge">
<title>AddressModule&#45;&gt;AddressReadOnlyComponent </title>
<path fill="none" stroke="#000000" stroke-dasharray="5,2" d="M316.5114,-187.1061C316.5114,-187.1061 316.5114,-205.991 316.5114,-205.991"/>
<polygon fill="#000000" stroke="#000000" points="313.0115,-205.9909 316.5114,-215.991 320.0115,-205.991 313.0115,-205.9909"/>
</g>
<!-- FormFieldsModule -->
<g id="node4" class="node">
<title>FormFieldsModule</title>
<polygon fill="#8dd3c7" stroke="#000000" points="315.1066,-122 312.1066,-126 291.1066,-126 288.1066,-122 190.8934,-122 190.8934,-86 315.1066,-86 315.1066,-122"/>
<text text-anchor="middle" x="253" y="-99.8" font-family="Times,serif" font-size="14.00" fill="#000000">FormFieldsModule</text>
</g>
<!-- FormFieldsModule&#45;&gt;AddressModule -->
<g id="edge3" class="edge">
<title>FormFieldsModule&#45;&gt;AddressModule</title>
<path fill="none" stroke="#000000" d="M301.1715,-122.1061C301.1715,-122.1061 301.1715,-140.991 301.1715,-140.991"/>
<polygon fill="#000000" stroke="#000000" points="297.6715,-140.9909 301.1715,-150.991 304.6715,-140.991 297.6715,-140.9909"/>
</g>
<!-- FormValidationModule -->
<g id="node5" class="node">
<title>FormValidationModule</title>
<polygon fill="#8dd3c7" stroke="#000000" points="172.4818,-122 169.4818,-126 148.4818,-126 145.4818,-122 23.5182,-122 23.5182,-86 172.4818,-86 172.4818,-122"/>
<text text-anchor="middle" x="98" y="-99.8" font-family="Times,serif" font-size="14.00" fill="#000000">FormValidationModule</text>
</g>
<!-- FormValidationModule&#45;&gt;AddressModule -->
<g id="edge4" class="edge">
<title>FormValidationModule&#45;&gt;AddressModule</title>
<path fill="none" stroke="#000000" d="M165.3789,-122.1061C165.3789,-141.3391 165.3789,-169 165.3789,-169 165.3789,-169 277.134,-169 277.134,-169"/>
<polygon fill="#000000" stroke="#000000" points="277.1341,-172.5001 287.134,-169 277.134,-165.5001 277.1341,-172.5001"/>
</g>
</g>
</svg>
