<?xml version="1.0" encoding="UTF-8" standalone="no"?>
<!DOCTYPE svg PUBLIC "-//W3C//DTD SVG 1.1//EN"
 "http://www.w3.org/Graphics/SVG/1.1/DTD/svg11.dtd">
<!-- Generated by graphviz version 2.40.1 (20161225.0304)
 -->
<!-- Title: dependencies Pages: 1 -->
<svg width="1030pt" height="284pt"
 viewBox="0.00 0.00 1030.00 284.00" xmlns="http://www.w3.org/2000/svg" xmlns:xlink="http://www.w3.org/1999/xlink">
<g id="graph0" class="graph" transform="scale(1 1) rotate(0) translate(4 280)">
<title>dependencies</title>
<polygon fill="#ffffff" stroke="transparent" points="-4,4 -4,-280 1026,-280 1026,4 -4,4"/>
<text text-anchor="start" x="490.0091" y="-42.4" font-family="sans-serif" font-weight="bold" font-size="14.00" fill="#000000">Legend</text>
<polygon fill="#ffffb3" stroke="transparent" points="277,-10 277,-30 297,-30 297,-10 277,-10"/>
<text text-anchor="start" x="300.629" y="-15.4" font-family="sans-serif" font-size="14.00" fill="#000000"> &#160;Declarations</text>
<polygon fill="#8dd3c7" stroke="transparent" points="390,-10 390,-30 410,-30 410,-10 390,-10"/>
<text text-anchor="start" x="413.7251" y="-15.4" font-family="sans-serif" font-size="14.00" fill="#000000"> &#160;Module</text>
<polygon fill="#80b1d3" stroke="transparent" points="476,-10 476,-30 496,-30 496,-10 476,-10"/>
<text text-anchor="start" x="499.7812" y="-15.4" font-family="sans-serif" font-size="14.00" fill="#000000"> &#160;Bootstrap</text>
<polygon fill="#fdb462" stroke="transparent" points="573,-10 573,-30 593,-30 593,-10 573,-10"/>
<text text-anchor="start" x="596.6732" y="-15.4" font-family="sans-serif" font-size="14.00" fill="#000000"> &#160;Providers</text>
<polygon fill="#fb8072" stroke="transparent" points="669,-10 669,-30 689,-30 689,-10 669,-10"/>
<text text-anchor="start" x="692.7258" y="-15.4" font-family="sans-serif" font-size="14.00" fill="#000000"> &#160;Exports</text>
<g id="clust1" class="cluster">
<title>cluster_SchedulerModule</title>
<polygon fill="none" stroke="#000000" stroke-dasharray="1,5" points="8,-70 8,-268 1014,-268 1014,-70 8,-70"/>
</g>
<g id="clust2" class="cluster">
<title>cluster_SchedulerModule_declarations</title>
<polygon fill="none" stroke="#000000" points="16,-78 16,-130 1006,-130 1006,-78 16,-78"/>
</g>
<g id="clust8" class="cluster">
<title>cluster_SchedulerModule_exports</title>
<polygon fill="none" stroke="#000000" points="98,-208 98,-260 924,-260 924,-208 98,-208"/>
</g>
<!-- JqxSchedulerComponent -->
<g id="node1" class="node">
<title>JqxSchedulerComponent</title>
<polygon fill="#ffffb3" stroke="#000000" points="998.2548,-122 841.7452,-122 841.7452,-86 998.2548,-86 998.2548,-122"/>
<text text-anchor="middle" x="920" y="-99.8" font-family="Times,serif" font-size="14.00" fill="#000000">JqxSchedulerComponent</text>
</g>
<!-- SchedulerModule -->
<g id="node5" class="node">
<title>SchedulerModule</title>
<polygon fill="#8dd3c7" stroke="#000000" points="571.5284,-187 568.5284,-191 547.5284,-191 544.5284,-187 456.4716,-187 456.4716,-151 571.5284,-151 571.5284,-187"/>
<text text-anchor="middle" x="514" y="-164.8" font-family="Times,serif" font-size="14.00" fill="#000000">SchedulerModule</text>
</g>
<!-- JqxSchedulerComponent&#45;&gt;SchedulerModule -->
<g id="edge1" class="edge">
<title>JqxSchedulerComponent&#45;&gt;SchedulerModule</title>
<path fill="none" stroke="#000000" d="M878.7183,-122.0225C878.7183,-139.3734 878.7183,-163 878.7183,-163 878.7183,-163 581.7907,-163 581.7907,-163"/>
<polygon fill="#000000" stroke="#000000" points="581.7907,-159.5001 571.7907,-163 581.7907,-166.5001 581.7907,-159.5001"/>
</g>
<!-- SchedulerEditSeletedEventTemplateDirective -->
<g id="node2" class="node">
<title>SchedulerEditSeletedEventTemplateDirective</title>
<polygon fill="#ffffb3" stroke="#000000" points="824.1278,-122 549.8722,-122 549.8722,-86 824.1278,-86 824.1278,-122"/>
<text text-anchor="middle" x="687" y="-99.8" font-family="Times,serif" font-size="14.00" fill="#000000">SchedulerEditSeletedEventTemplateDirective</text>
</g>
<!-- SchedulerEditSeletedEventTemplateDirective&#45;&gt;SchedulerModule -->
<g id="edge2" class="edge">
<title>SchedulerEditSeletedEventTemplateDirective&#45;&gt;SchedulerModule</title>
<path fill="none" stroke="#000000" d="M560.8499,-122.1061C560.8499,-122.1061 560.8499,-140.991 560.8499,-140.991"/>
<polygon fill="#000000" stroke="#000000" points="557.35,-140.9909 560.8499,-150.991 564.35,-140.991 557.35,-140.9909"/>
</g>
<!-- SchedulerEventTemplateDirective -->
<g id="node3" class="node">
<title>SchedulerEventTemplateDirective</title>
<polygon fill="#ffffb3" stroke="#000000" points="531.5868,-122 322.4132,-122 322.4132,-86 531.5868,-86 531.5868,-122"/>
<text text-anchor="middle" x="427" y="-99.8" font-family="Times,serif" font-size="14.00" fill="#000000">SchedulerEventTemplateDirective</text>
</g>
<!-- SchedulerEventTemplateDirective&#45;&gt;SchedulerModule -->
<g id="edge3" class="edge">
<title>SchedulerEventTemplateDirective&#45;&gt;SchedulerModule</title>
<path fill="none" stroke="#000000" d="M494.0148,-122.1061C494.0148,-122.1061 494.0148,-140.991 494.0148,-140.991"/>
<polygon fill="#000000" stroke="#000000" points="490.5148,-140.9909 494.0148,-150.991 497.5148,-140.991 490.5148,-140.9909"/>
</g>
<!-- SchedulerReadSeletedEventTemplateDirective -->
<g id="node4" class="node">
<title>SchedulerReadSeletedEventTemplateDirective</title>
<polygon fill="#ffffb3" stroke="#000000" points="303.5601,-122 24.4399,-122 24.4399,-86 303.5601,-86 303.5601,-122"/>
<text text-anchor="middle" x="164" y="-99.8" font-family="Times,serif" font-size="14.00" fill="#000000">SchedulerReadSeletedEventTemplateDirective</text>
</g>
<!-- SchedulerReadSeletedEventTemplateDirective&#45;&gt;SchedulerModule -->
<g id="edge4" class="edge">
<title>SchedulerReadSeletedEventTemplateDirective&#45;&gt;SchedulerModule</title>
<path fill="none" stroke="#000000" d="M205.125,-122.0225C205.125,-139.3734 205.125,-163 205.125,-163 205.125,-163 446.2653,-163 446.2653,-163"/>
<polygon fill="#000000" stroke="#000000" points="446.2653,-166.5001 456.2653,-163 446.2653,-159.5001 446.2653,-166.5001"/>
</g>
<!-- SchedulerEditSeletedEventTemplateDirective  -->
<g id="node6" class="node">
<title>SchedulerEditSeletedEventTemplateDirective </title>
<polygon fill="#fb8072" stroke="#000000" points="915.628,-252 638.372,-252 638.372,-216 915.628,-216 915.628,-252"/>
<text text-anchor="middle" x="777" y="-229.8" font-family="Times,serif" font-size="14.00" fill="#000000">SchedulerEditSeletedEventTemplateDirective </text>
</g>
<!-- SchedulerModule&#45;&gt;SchedulerEditSeletedEventTemplateDirective  -->
<g id="edge5" class="edge">
<title>SchedulerModule&#45;&gt;SchedulerEditSeletedEventTemplateDirective </title>
<path fill="none" stroke="#000000" stroke-dasharray="5,2" d="M571.6155,-175C635.9398,-175 731.125,-175 731.125,-175 731.125,-175 731.125,-205.9775 731.125,-205.9775"/>
<polygon fill="#000000" stroke="#000000" points="727.6251,-205.9774 731.125,-215.9775 734.6251,-205.9775 727.6251,-205.9774"/>
</g>
<!-- SchedulerEventTemplateDirective  -->
<g id="node7" class="node">
<title>SchedulerEventTemplateDirective </title>
<polygon fill="#fb8072" stroke="#000000" points="620.5864,-252 407.4136,-252 407.4136,-216 620.5864,-216 620.5864,-252"/>
<text text-anchor="middle" x="514" y="-229.8" font-family="Times,serif" font-size="14.00" fill="#000000">SchedulerEventTemplateDirective </text>
</g>
<!-- SchedulerModule&#45;&gt;SchedulerEventTemplateDirective  -->
<g id="edge6" class="edge">
<title>SchedulerModule&#45;&gt;SchedulerEventTemplateDirective </title>
<path fill="none" stroke="#000000" stroke-dasharray="5,2" d="M514,-187.1061C514,-187.1061 514,-205.991 514,-205.991"/>
<polygon fill="#000000" stroke="#000000" points="510.5001,-205.9909 514,-215.991 517.5001,-205.991 510.5001,-205.9909"/>
</g>
<!-- SchedulerReadSeletedEventTemplateDirective  -->
<g id="node8" class="node">
<title>SchedulerReadSeletedEventTemplateDirective </title>
<polygon fill="#fb8072" stroke="#000000" points="389.5598,-252 106.4402,-252 106.4402,-216 389.5598,-216 389.5598,-252"/>
<text text-anchor="middle" x="248" y="-229.8" font-family="Times,serif" font-size="14.00" fill="#000000">SchedulerReadSeletedEventTemplateDirective </text>
</g>
<!-- SchedulerModule&#45;&gt;SchedulerReadSeletedEventTemplateDirective  -->
<g id="edge7" class="edge">
<title>SchedulerModule&#45;&gt;SchedulerReadSeletedEventTemplateDirective </title>
<path fill="none" stroke="#000000" stroke-dasharray="5,2" d="M456.4635,-175C411.2498,-175 355.8683,-175 355.8683,-175 355.8683,-175 355.8683,-205.9775 355.8683,-205.9775"/>
<polygon fill="#000000" stroke="#000000" points="352.3684,-205.9774 355.8683,-215.9775 359.3684,-205.9775 352.3684,-205.9774"/>
</g>
</g>
</svg>
