<?xml version="1.0" encoding="UTF-8" standalone="no"?>
<!DOCTYPE svg PUBLIC "-//W3C//DTD SVG 1.1//EN"
 "http://www.w3.org/Graphics/SVG/1.1/DTD/svg11.dtd">
<!-- Generated by graphviz version 2.40.1 (20161225.0304)
 -->
<!-- Title: dependencies Pages: 1 -->
<svg width="1180pt" height="284pt"
 viewBox="0.00 0.00 1180.00 284.00" xmlns="http://www.w3.org/2000/svg" xmlns:xlink="http://www.w3.org/1999/xlink">
<g id="graph0" class="graph" transform="scale(1 1) rotate(0) translate(4 280)">
<title>dependencies</title>
<polygon fill="#ffffff" stroke="transparent" points="-4,4 -4,-280 1176,-280 1176,4 -4,4"/>
<text text-anchor="start" x="565.0091" y="-42.4" font-family="sans-serif" font-weight="bold" font-size="14.00" fill="#000000">Legend</text>
<polygon fill="#ffffb3" stroke="transparent" points="352,-10 352,-30 372,-30 372,-10 352,-10"/>
<text text-anchor="start" x="375.629" y="-15.4" font-family="sans-serif" font-size="14.00" fill="#000000"> &#160;Declarations</text>
<polygon fill="#8dd3c7" stroke="transparent" points="465,-10 465,-30 485,-30 485,-10 465,-10"/>
<text text-anchor="start" x="488.7251" y="-15.4" font-family="sans-serif" font-size="14.00" fill="#000000"> &#160;Module</text>
<polygon fill="#80b1d3" stroke="transparent" points="551,-10 551,-30 571,-30 571,-10 551,-10"/>
<text text-anchor="start" x="574.7812" y="-15.4" font-family="sans-serif" font-size="14.00" fill="#000000"> &#160;Bootstrap</text>
<polygon fill="#fdb462" stroke="transparent" points="648,-10 648,-30 668,-30 668,-10 648,-10"/>
<text text-anchor="start" x="671.6732" y="-15.4" font-family="sans-serif" font-size="14.00" fill="#000000"> &#160;Providers</text>
<polygon fill="#fb8072" stroke="transparent" points="744,-10 744,-30 764,-30 764,-10 744,-10"/>
<text text-anchor="start" x="767.7258" y="-15.4" font-family="sans-serif" font-size="14.00" fill="#000000"> &#160;Exports</text>
<g id="clust1" class="cluster">
<title>cluster_SchedulerModule</title>
<polygon fill="none" stroke="#000000" stroke-dasharray="1,5" points="8,-70 8,-268 1164,-268 1164,-70 8,-70"/>
</g>
<g id="clust2" class="cluster">
<title>cluster_SchedulerModule_declarations</title>
<polygon fill="none" stroke="#000000" points="16,-78 16,-130 1156,-130 1156,-78 16,-78"/>
</g>
<g id="clust9" class="cluster">
<title>cluster_SchedulerModule_exports</title>
<polygon fill="none" stroke="#000000" points="97,-208 97,-260 1076,-260 1076,-208 97,-208"/>
</g>
<!-- CalendarComponent -->
<g id="node1" class="node">
<title>CalendarComponent</title>
<polygon fill="#ffffb3" stroke="#000000" points="1147.8641,-122 1016.1359,-122 1016.1359,-86 1147.8641,-86 1147.8641,-122"/>
<text text-anchor="middle" x="1082" y="-99.8" font-family="Times,serif" font-size="14.00" fill="#000000">CalendarComponent</text>
</g>
<!-- SchedulerModule -->
<g id="node6" class="node">
<title>SchedulerModule</title>
<polygon fill="#8dd3c7" stroke="#000000" points="744.5284,-187 741.5284,-191 720.5284,-191 717.5284,-187 629.4716,-187 629.4716,-151 744.5284,-151 744.5284,-187"/>
<text text-anchor="middle" x="687" y="-164.8" font-family="Times,serif" font-size="14.00" fill="#000000">SchedulerModule</text>
</g>
<!-- CalendarComponent&#45;&gt;SchedulerModule -->
<g id="edge1" class="edge">
<title>CalendarComponent&#45;&gt;SchedulerModule</title>
<path fill="none" stroke="#000000" d="M1041.875,-122.1061C1041.875,-141.3391 1041.875,-169 1041.875,-169 1041.875,-169 754.8066,-169 754.8066,-169"/>
<polygon fill="#000000" stroke="#000000" points="754.8067,-165.5001 744.8066,-169 754.8066,-172.5001 754.8067,-165.5001"/>
</g>
<!-- JqxSchedulerComponent -->
<g id="node2" class="node">
<title>JqxSchedulerComponent</title>
<polygon fill="#ffffb3" stroke="#000000" points="998.2548,-122 841.7452,-122 841.7452,-86 998.2548,-86 998.2548,-122"/>
<text text-anchor="middle" x="920" y="-99.8" font-family="Times,serif" font-size="14.00" fill="#000000">JqxSchedulerComponent</text>
</g>
<!-- JqxSchedulerComponent&#45;&gt;SchedulerModule -->
<g id="edge2" class="edge">
<title>JqxSchedulerComponent&#45;&gt;SchedulerModule</title>
<path fill="none" stroke="#000000" d="M878.2183,-122.027C878.2183,-138.3976 878.2183,-160 878.2183,-160 878.2183,-160 754.6311,-160 754.6311,-160"/>
<polygon fill="#000000" stroke="#000000" points="754.6311,-156.5001 744.6311,-160 754.6311,-163.5001 754.6311,-156.5001"/>
</g>
<!-- SchedulerEditSeletedEventTemplateDirective -->
<g id="node3" class="node">
<title>SchedulerEditSeletedEventTemplateDirective</title>
<polygon fill="#ffffb3" stroke="#000000" points="824.1278,-122 549.8722,-122 549.8722,-86 824.1278,-86 824.1278,-122"/>
<text text-anchor="middle" x="687" y="-99.8" font-family="Times,serif" font-size="14.00" fill="#000000">SchedulerEditSeletedEventTemplateDirective</text>
</g>
<!-- SchedulerEditSeletedEventTemplateDirective&#45;&gt;SchedulerModule -->
<g id="edge3" class="edge">
<title>SchedulerEditSeletedEventTemplateDirective&#45;&gt;SchedulerModule</title>
<path fill="none" stroke="#000000" d="M687,-122.1061C687,-122.1061 687,-140.991 687,-140.991"/>
<polygon fill="#000000" stroke="#000000" points="683.5001,-140.9909 687,-150.991 690.5001,-140.991 683.5001,-140.9909"/>
</g>
<!-- SchedulerEventTemplateDirective -->
<g id="node4" class="node">
<title>SchedulerEventTemplateDirective</title>
<polygon fill="#ffffb3" stroke="#000000" points="531.5868,-122 322.4132,-122 322.4132,-86 531.5868,-86 531.5868,-122"/>
<text text-anchor="middle" x="427" y="-99.8" font-family="Times,serif" font-size="14.00" fill="#000000">SchedulerEventTemplateDirective</text>
</g>
<!-- SchedulerEventTemplateDirective&#45;&gt;SchedulerModule -->
<g id="edge4" class="edge">
<title>SchedulerEventTemplateDirective&#45;&gt;SchedulerModule</title>
<path fill="none" stroke="#000000" d="M469.125,-122.027C469.125,-138.3976 469.125,-160 469.125,-160 469.125,-160 619.4709,-160 619.4709,-160"/>
<polygon fill="#000000" stroke="#000000" points="619.4709,-163.5001 629.4709,-160 619.4709,-156.5001 619.4709,-163.5001"/>
</g>
<!-- SchedulerReadSeletedEventTemplateDirective -->
<g id="node5" class="node">
<title>SchedulerReadSeletedEventTemplateDirective</title>
<polygon fill="#ffffb3" stroke="#000000" points="303.5601,-122 24.4399,-122 24.4399,-86 303.5601,-86 303.5601,-122"/>
<text text-anchor="middle" x="164" y="-99.8" font-family="Times,serif" font-size="14.00" fill="#000000">SchedulerReadSeletedEventTemplateDirective</text>
</g>
<!-- SchedulerReadSeletedEventTemplateDirective&#45;&gt;SchedulerModule -->
<g id="edge5" class="edge">
<title>SchedulerReadSeletedEventTemplateDirective&#45;&gt;SchedulerModule</title>
<path fill="none" stroke="#000000" d="M204.625,-122.1061C204.625,-141.3391 204.625,-169 204.625,-169 204.625,-169 619.2934,-169 619.2934,-169"/>
<polygon fill="#000000" stroke="#000000" points="619.2935,-172.5001 629.2934,-169 619.2934,-165.5001 619.2935,-172.5001"/>
</g>
<!-- CalendarComponent  -->
<g id="node7" class="node">
<title>CalendarComponent </title>
<polygon fill="#fb8072" stroke="#000000" points="1067.8645,-252 932.1355,-252 932.1355,-216 1067.8645,-216 1067.8645,-252"/>
<text text-anchor="middle" x="1000" y="-229.8" font-family="Times,serif" font-size="14.00" fill="#000000">CalendarComponent </text>
</g>
<!-- SchedulerModule&#45;&gt;CalendarComponent  -->
<g id="edge6" class="edge">
<title>SchedulerModule&#45;&gt;CalendarComponent </title>
<path fill="none" stroke="#000000" stroke-dasharray="5,2" d="M744.6738,-178C826.2036,-178 965.3477,-178 965.3477,-178 965.3477,-178 965.3477,-205.973 965.3477,-205.973"/>
<polygon fill="#000000" stroke="#000000" points="961.8477,-205.973 965.3477,-215.973 968.8477,-205.973 961.8477,-205.973"/>
</g>
<!-- SchedulerEditSeletedEventTemplateDirective  -->
<g id="node8" class="node">
<title>SchedulerEditSeletedEventTemplateDirective </title>
<polygon fill="#fb8072" stroke="#000000" points="914.628,-252 637.372,-252 637.372,-216 914.628,-216 914.628,-252"/>
<text text-anchor="middle" x="776" y="-229.8" font-family="Times,serif" font-size="14.00" fill="#000000">SchedulerEditSeletedEventTemplateDirective </text>
</g>
<!-- SchedulerModule&#45;&gt;SchedulerEditSeletedEventTemplateDirective  -->
<g id="edge7" class="edge">
<title>SchedulerModule&#45;&gt;SchedulerEditSeletedEventTemplateDirective </title>
<path fill="none" stroke="#000000" stroke-dasharray="5,2" d="M690.9749,-187.1061C690.9749,-187.1061 690.9749,-205.991 690.9749,-205.991"/>
<polygon fill="#000000" stroke="#000000" points="687.475,-205.9909 690.9749,-215.991 694.475,-205.991 687.475,-205.9909"/>
</g>
<!-- SchedulerEventTemplateDirective  -->
<g id="node9" class="node">
<title>SchedulerEventTemplateDirective </title>
<polygon fill="#fb8072" stroke="#000000" points="619.5864,-252 406.4136,-252 406.4136,-216 619.5864,-216 619.5864,-252"/>
<text text-anchor="middle" x="513" y="-229.8" font-family="Times,serif" font-size="14.00" fill="#000000">SchedulerEventTemplateDirective </text>
</g>
<!-- SchedulerModule&#45;&gt;SchedulerEventTemplateDirective  -->
<g id="edge8" class="edge">
<title>SchedulerModule&#45;&gt;SchedulerEventTemplateDirective </title>
<path fill="none" stroke="#000000" stroke-dasharray="5,2" d="M633.2112,-187.1061C633.2112,-206.3391 633.2112,-234 633.2112,-234 633.2112,-234 629.8872,-234 629.8872,-234"/>
<polygon fill="#000000" stroke="#000000" points="629.8872,-230.5001 619.8872,-234 629.8872,-237.5001 629.8872,-230.5001"/>
</g>
<!-- SchedulerReadSeletedEventTemplateDirective  -->
<g id="node10" class="node">
<title>SchedulerReadSeletedEventTemplateDirective </title>
<polygon fill="#fb8072" stroke="#000000" points="388.5598,-252 105.4402,-252 105.4402,-216 388.5598,-216 388.5598,-252"/>
<text text-anchor="middle" x="247" y="-229.8" font-family="Times,serif" font-size="14.00" fill="#000000">SchedulerReadSeletedEventTemplateDirective </text>
</g>
<!-- SchedulerModule&#45;&gt;SchedulerReadSeletedEventTemplateDirective  -->
<g id="edge9" class="edge">
<title>SchedulerModule&#45;&gt;SchedulerReadSeletedEventTemplateDirective </title>
<path fill="none" stroke="#000000" stroke-dasharray="5,2" d="M629.2342,-178C534.2195,-178 355.3683,-178 355.3683,-178 355.3683,-178 355.3683,-205.973 355.3683,-205.973"/>
<polygon fill="#000000" stroke="#000000" points="351.8684,-205.973 355.3683,-215.973 358.8684,-205.973 351.8684,-205.973"/>
</g>
</g>
</svg>
