<?xml version="1.0" encoding="UTF-8" standalone="no"?>
<!DOCTYPE svg PUBLIC "-//W3C//DTD SVG 1.1//EN"
 "http://www.w3.org/Graphics/SVG/1.1/DTD/svg11.dtd">
<!-- Generated by graphviz version 2.40.1 (20161225.0304)
 -->
<!-- Title: dependencies Pages: 1 -->
<svg width="788pt" height="284pt"
 viewBox="0.00 0.00 788.00 284.00" xmlns="http://www.w3.org/2000/svg" xmlns:xlink="http://www.w3.org/1999/xlink">
<g id="graph0" class="graph" transform="scale(1 1) rotate(0) translate(4 280)">
<title>dependencies</title>
<polygon fill="#ffffff" stroke="transparent" points="-4,4 -4,-280 784,-280 784,4 -4,4"/>
<text text-anchor="start" x="369.0091" y="-42.4" font-family="sans-serif" font-weight="bold" font-size="14.00" fill="#000000">Legend</text>
<polygon fill="#ffffb3" stroke="transparent" points="156,-10 156,-30 176,-30 176,-10 156,-10"/>
<text text-anchor="start" x="179.629" y="-15.4" font-family="sans-serif" font-size="14.00" fill="#000000"> &#160;Declarations</text>
<polygon fill="#8dd3c7" stroke="transparent" points="269,-10 269,-30 289,-30 289,-10 269,-10"/>
<text text-anchor="start" x="292.7251" y="-15.4" font-family="sans-serif" font-size="14.00" fill="#000000"> &#160;Module</text>
<polygon fill="#80b1d3" stroke="transparent" points="355,-10 355,-30 375,-30 375,-10 355,-10"/>
<text text-anchor="start" x="378.7812" y="-15.4" font-family="sans-serif" font-size="14.00" fill="#000000"> &#160;Bootstrap</text>
<polygon fill="#fdb462" stroke="transparent" points="452,-10 452,-30 472,-30 472,-10 452,-10"/>
<text text-anchor="start" x="475.6732" y="-15.4" font-family="sans-serif" font-size="14.00" fill="#000000"> &#160;Providers</text>
<polygon fill="#fb8072" stroke="transparent" points="548,-10 548,-30 568,-30 568,-10 548,-10"/>
<text text-anchor="start" x="571.7258" y="-15.4" font-family="sans-serif" font-size="14.00" fill="#000000"> &#160;Exports</text>
<g id="clust1" class="cluster">
<title>cluster_AppModule</title>
<polygon fill="none" stroke="#000000" stroke-dasharray="1,5" points="8,-70 8,-268 772,-268 772,-70 8,-70"/>
</g>
<g id="clust2" class="cluster">
<title>cluster_AppModule_declarations</title>
<polygon fill="none" stroke="#000000" points="509,-78 509,-130 764,-130 764,-78 509,-78"/>
</g>
<g id="clust5" class="cluster">
<title>cluster_AppModule_imports</title>
<polygon fill="none" stroke="#000000" points="16,-78 16,-130 501,-130 501,-78 16,-78"/>
</g>
<g id="clust7" class="cluster">
<title>cluster_AppModule_bootstrap</title>
<polygon fill="none" stroke="#000000" points="304,-208 304,-260 428,-260 428,-208 304,-208"/>
</g>
<!-- AppComponent -->
<g id="node1" class="node">
<title>AppComponent</title>
<polygon fill="#ffffb3" stroke="#000000" points="755.9399,-122 650.0601,-122 650.0601,-86 755.9399,-86 755.9399,-122"/>
<text text-anchor="middle" x="703" y="-99.8" font-family="Times,serif" font-size="14.00" fill="#000000">AppComponent</text>
</g>
<!-- AppModule -->
<g id="node3" class="node">
<title>AppModule</title>
<polygon fill="#8dd3c7" stroke="#000000" points="407.6571,-187 404.6571,-191 383.6571,-191 380.6571,-187 324.3429,-187 324.3429,-151 407.6571,-151 407.6571,-187"/>
<text text-anchor="middle" x="366" y="-164.8" font-family="Times,serif" font-size="14.00" fill="#000000">AppModule</text>
</g>
<!-- AppComponent&#45;&gt;AppModule -->
<g id="edge1" class="edge">
<title>AppComponent&#45;&gt;AppModule</title>
<path fill="none" stroke="#000000" d="M703,-122.2843C703,-143.3211 703,-175 703,-175 703,-175 417.6608,-175 417.6608,-175"/>
<polygon fill="#000000" stroke="#000000" points="417.6608,-171.5001 407.6608,-175 417.6608,-178.5001 417.6608,-171.5001"/>
</g>
<!-- HomeComponent -->
<g id="node2" class="node">
<title>HomeComponent</title>
<polygon fill="#ffffb3" stroke="#000000" points="632.5451,-122 517.4549,-122 517.4549,-86 632.5451,-86 632.5451,-122"/>
<text text-anchor="middle" x="575" y="-99.8" font-family="Times,serif" font-size="14.00" fill="#000000">HomeComponent</text>
</g>
<!-- HomeComponent&#45;&gt;AppModule -->
<g id="edge2" class="edge">
<title>HomeComponent&#45;&gt;AppModule</title>
<path fill="none" stroke="#000000" d="M575,-122.0225C575,-139.3734 575,-163 575,-163 575,-163 417.792,-163 417.792,-163"/>
<polygon fill="#000000" stroke="#000000" points="417.792,-159.5001 407.792,-163 417.7919,-166.5001 417.792,-159.5001"/>
</g>
<!-- AppComponent  -->
<g id="node8" class="node">
<title>AppComponent </title>
<polygon fill="#80b1d3" stroke="#000000" points="420.439,-252 311.561,-252 311.561,-216 420.439,-216 420.439,-252"/>
<text text-anchor="middle" x="366" y="-229.8" font-family="Times,serif" font-size="14.00" fill="#000000">AppComponent </text>
</g>
<!-- AppModule&#45;&gt;AppComponent  -->
<g id="edge7" class="edge">
<title>AppModule&#45;&gt;AppComponent </title>
<path fill="none" stroke="#000000" stroke-dasharray="1,5" d="M366,-187.1061C366,-187.1061 366,-205.991 366,-205.991"/>
<polygon fill="#000000" stroke="#000000" points="362.5001,-205.9909 366,-215.991 369.5001,-205.991 362.5001,-205.9909"/>
</g>
<!-- AppRoutingModule -->
<g id="node4" class="node">
<title>AppRoutingModule</title>
<polygon fill="#8dd3c7" stroke="#000000" points="493.2744,-122 490.2744,-126 469.2744,-126 466.2744,-122 364.7256,-122 364.7256,-86 493.2744,-86 493.2744,-122"/>
<text text-anchor="middle" x="429" y="-99.8" font-family="Times,serif" font-size="14.00" fill="#000000">AppRoutingModule</text>
</g>
<!-- AppRoutingModule&#45;&gt;AppModule -->
<g id="edge3" class="edge">
<title>AppRoutingModule&#45;&gt;AppModule</title>
<path fill="none" stroke="#000000" d="M386.2206,-122.1061C386.2206,-122.1061 386.2206,-140.991 386.2206,-140.991"/>
<polygon fill="#000000" stroke="#000000" points="382.7206,-140.9909 386.2206,-150.991 389.7206,-140.991 382.7206,-140.9909"/>
</g>
<!-- CoreModule -->
<g id="node5" class="node">
<title>CoreModule</title>
<polygon fill="#8dd3c7" stroke="#000000" points="346.2619,-122 343.2619,-126 322.2619,-126 319.2619,-122 259.7381,-122 259.7381,-86 346.2619,-86 346.2619,-122"/>
<text text-anchor="middle" x="303" y="-99.8" font-family="Times,serif" font-size="14.00" fill="#000000">CoreModule</text>
</g>
<!-- CoreModule&#45;&gt;AppModule -->
<g id="edge4" class="edge">
<title>CoreModule&#45;&gt;AppModule</title>
<path fill="none" stroke="#000000" d="M335.2763,-122.1061C335.2763,-122.1061 335.2763,-140.991 335.2763,-140.991"/>
<polygon fill="#000000" stroke="#000000" points="331.7764,-140.9909 335.2763,-150.991 338.7764,-140.991 331.7764,-140.9909"/>
</g>
<!-- SharedModule -->
<g id="node6" class="node">
<title>SharedModule</title>
<polygon fill="#8dd3c7" stroke="#000000" points="241.4231,-122 238.4231,-126 217.4231,-126 214.4231,-122 142.5769,-122 142.5769,-86 241.4231,-86 241.4231,-122"/>
<text text-anchor="middle" x="192" y="-99.8" font-family="Times,serif" font-size="14.00" fill="#000000">SharedModule</text>
</g>
<!-- SharedModule&#45;&gt;AppModule -->
<g id="edge5" class="edge">
<title>SharedModule&#45;&gt;AppModule</title>
<path fill="none" stroke="#000000" d="M192,-122.0225C192,-139.3734 192,-163 192,-163 192,-163 314.3227,-163 314.3227,-163"/>
<polygon fill="#000000" stroke="#000000" points="314.3227,-166.5001 324.3227,-163 314.3226,-159.5001 314.3227,-166.5001"/>
</g>
<!-- swMapModule -->
<g id="node7" class="node">
<title>swMapModule</title>
<polygon fill="#8dd3c7" stroke="#000000" points="124.2605,-122 121.2605,-126 100.2605,-126 97.2605,-122 23.7395,-122 23.7395,-86 124.2605,-86 124.2605,-122"/>
<text text-anchor="middle" x="74" y="-99.8" font-family="Times,serif" font-size="14.00" fill="#000000">swMapModule</text>
</g>
<!-- swMapModule&#45;&gt;AppModule -->
<g id="edge6" class="edge">
<title>swMapModule&#45;&gt;AppModule</title>
<path fill="none" stroke="#000000" d="M74,-122.2843C74,-143.3211 74,-175 74,-175 74,-175 314.1635,-175 314.1635,-175"/>
<polygon fill="#000000" stroke="#000000" points="314.1636,-178.5001 324.1635,-175 314.1635,-171.5001 314.1636,-178.5001"/>
</g>
</g>
</svg>
